<svg width="111" height="40" viewBox="0 0 111 40" fill="none" xmlns="http://www.w3.org/2000/svg">
<rect x="0.75" y="0.75" width="109.5" height="38.5" stroke="#349705" stroke-width="1.5"/>
<path d="M13.2784 25.5V13.8636H15.0341V23.9886H20.3068V25.5H13.2784ZM25.9347 25.6761C25.0748 25.6761 24.3343 25.4924 23.7131 25.125C23.0956 24.7538 22.6184 24.233 22.2812 23.5625C21.9479 22.8883 21.7812 22.0985 21.7812 21.1932C21.7812 20.2992 21.9479 19.5114 22.2812 18.8295C22.6184 18.1477 23.0881 17.6155 23.6903 17.233C24.2964 16.8504 25.0047 16.6591 25.8153 16.6591C26.3078 16.6591 26.785 16.7405 27.2472 16.9034C27.7093 17.0663 28.1241 17.322 28.4915 17.6705C28.8589 18.0189 29.1487 18.4716 29.3608 19.0284C29.5729 19.5814 29.679 20.2538 29.679 21.0455V21.6477H22.7415V20.375H28.0142C28.0142 19.928 27.9233 19.5322 27.7415 19.1875C27.5597 18.839 27.304 18.5644 26.9744 18.3636C26.6487 18.1629 26.2661 18.0625 25.8267 18.0625C25.3494 18.0625 24.9328 18.1799 24.5767 18.4148C24.2244 18.6458 23.9517 18.9489 23.7585 19.3239C23.5691 19.6951 23.4744 20.0985 23.4744 20.5341V21.5284C23.4744 22.1117 23.5767 22.608 23.7812 23.017C23.9896 23.4261 24.2794 23.7386 24.6506 23.9545C25.0218 24.1667 25.4555 24.2727 25.9517 24.2727C26.2737 24.2727 26.5672 24.2273 26.8324 24.1364C27.0975 24.0417 27.3267 23.9015 27.5199 23.7159C27.7131 23.5303 27.8608 23.3011 27.9631 23.0284L29.571 23.3182C29.4422 23.7917 29.2112 24.2064 28.8778 24.5625C28.5483 24.9148 28.1335 25.1894 27.6335 25.3864C27.1373 25.5795 26.571 25.6761 25.9347 25.6761ZM34.1037 25.6932C33.5507 25.6932 33.0507 25.5909 32.6037 25.3864C32.1567 25.178 31.8026 24.8769 31.5412 24.483C31.2836 24.089 31.1548 23.6061 31.1548 23.0341C31.1548 22.5417 31.2495 22.1364 31.4389 21.8182C31.6283 21.5 31.884 21.2481 32.206 21.0625C32.5279 20.8769 32.8878 20.7367 33.2855 20.642C33.6832 20.5473 34.0885 20.4754 34.5014 20.4261C35.0241 20.3655 35.4484 20.3163 35.7741 20.2784C36.0999 20.2367 36.3366 20.1705 36.4844 20.0795C36.6321 19.9886 36.706 19.8409 36.706 19.6364V19.5966C36.706 19.1004 36.5658 18.7159 36.2855 18.4432C36.009 18.1705 35.5961 18.0341 35.0469 18.0341C34.4749 18.0341 34.0241 18.161 33.6946 18.4148C33.3688 18.6648 33.1435 18.9432 33.0185 19.25L31.4219 18.8864C31.6113 18.3561 31.8878 17.928 32.2514 17.6023C32.6188 17.2727 33.0412 17.0341 33.5185 16.8864C33.9957 16.7348 34.4976 16.6591 35.0241 16.6591C35.3726 16.6591 35.742 16.7008 36.1321 16.7841C36.526 16.8636 36.8935 17.0114 37.2344 17.2273C37.5791 17.4432 37.8613 17.7519 38.081 18.1534C38.3007 18.5511 38.4105 19.0682 38.4105 19.7045V25.5H36.7514V24.3068H36.6832C36.5734 24.5265 36.4086 24.7424 36.1889 24.9545C35.9692 25.1667 35.687 25.3428 35.3423 25.483C34.9976 25.6231 34.5848 25.6932 34.1037 25.6932ZM34.473 24.3295C34.9427 24.3295 35.3442 24.2367 35.6776 24.0511C36.0147 23.8655 36.2704 23.6231 36.4446 23.3239C36.6226 23.0208 36.7116 22.697 36.7116 22.3523V21.2273C36.651 21.2879 36.5336 21.3447 36.3594 21.3977C36.1889 21.447 35.9938 21.4905 35.7741 21.5284C35.5545 21.5625 35.3404 21.5947 35.1321 21.625C34.9238 21.6515 34.7495 21.6742 34.6094 21.6932C34.2798 21.7348 33.9787 21.8049 33.706 21.9034C33.437 22.0019 33.2211 22.1439 33.0582 22.3295C32.8991 22.5114 32.8196 22.7538 32.8196 23.0568C32.8196 23.4773 32.9749 23.7955 33.2855 24.0114C33.5961 24.2235 33.992 24.3295 34.473 24.3295ZM40.6733 25.5V16.7727H42.3153V18.1591H42.4062C42.5653 17.6894 42.8456 17.3201 43.2472 17.0511C43.6525 16.7784 44.1108 16.642 44.6222 16.642C44.7282 16.642 44.8532 16.6458 44.9972 16.6534C45.1449 16.661 45.2604 16.6705 45.3438 16.6818V18.3068C45.2756 18.2879 45.1544 18.267 44.9801 18.2443C44.8059 18.2178 44.6316 18.2045 44.4574 18.2045C44.0559 18.2045 43.6979 18.2898 43.3835 18.4602C43.0729 18.6269 42.8267 18.8598 42.6449 19.1591C42.4631 19.4545 42.3722 19.7917 42.3722 20.1705V25.5H40.6733ZM48.5128 20.3182V25.5H46.8139V16.7727H48.4446V18.1932H48.5526C48.7533 17.7311 49.0677 17.3598 49.4957 17.0795C49.9276 16.7992 50.4711 16.6591 51.1264 16.6591C51.7211 16.6591 52.242 16.7841 52.6889 17.0341C53.1359 17.2803 53.4825 17.6477 53.7287 18.1364C53.9749 18.625 54.098 19.2292 54.098 19.9489V25.5H52.3991V20.1534C52.3991 19.5208 52.2344 19.0265 51.9048 18.6705C51.5753 18.3106 51.1226 18.1307 50.5469 18.1307C50.1529 18.1307 49.8026 18.2159 49.4957 18.3864C49.1927 18.5568 48.9522 18.8068 48.7741 19.1364C48.5999 19.4621 48.5128 19.8561 48.5128 20.3182ZM60.6108 25.5V16.7727H62.2415V18.1932H62.3494C62.5313 17.7121 62.8286 17.3371 63.2415 17.0682C63.6544 16.7955 64.1487 16.6591 64.7244 16.6591C65.3078 16.6591 65.7964 16.7955 66.1903 17.0682C66.5881 17.3409 66.8816 17.7159 67.071 18.1932H67.1619C67.3703 17.7273 67.7017 17.3561 68.1562 17.0795C68.6108 16.7992 69.1525 16.6591 69.7812 16.6591C70.5729 16.6591 71.2188 16.9072 71.7188 17.4034C72.2225 17.8996 72.4744 18.6477 72.4744 19.6477V25.5H70.7756V19.8068C70.7756 19.2159 70.6146 18.7879 70.2926 18.5227C69.9706 18.2576 69.5862 18.125 69.1392 18.125C68.5862 18.125 68.1562 18.2955 67.8494 18.6364C67.5426 18.9735 67.3892 19.4072 67.3892 19.9375V25.5H65.696V19.6989C65.696 19.2254 65.5483 18.8447 65.2528 18.5568C64.9574 18.2689 64.5729 18.125 64.0994 18.125C63.7775 18.125 63.4801 18.2102 63.2074 18.3807C62.9384 18.5473 62.7206 18.7803 62.554 19.0795C62.3911 19.3788 62.3097 19.7254 62.3097 20.1193V25.5H60.6108ZM78.4276 25.6761C77.6094 25.6761 76.8954 25.4886 76.2855 25.1136C75.6757 24.7386 75.2022 24.214 74.8651 23.5398C74.5279 22.8655 74.3594 22.0777 74.3594 21.1761C74.3594 20.2708 74.5279 19.4792 74.8651 18.8011C75.2022 18.1231 75.6757 17.5966 76.2855 17.2216C76.8954 16.8466 77.6094 16.6591 78.4276 16.6591C79.2457 16.6591 79.9598 16.8466 80.5696 17.2216C81.1795 17.5966 81.6529 18.1231 81.9901 18.8011C82.3272 19.4792 82.4957 20.2708 82.4957 21.1761C82.4957 22.0777 82.3272 22.8655 81.9901 23.5398C81.6529 24.214 81.1795 24.7386 80.5696 25.1136C79.9598 25.4886 79.2457 25.6761 78.4276 25.6761ZM78.4332 24.25C78.9635 24.25 79.4029 24.1098 79.7514 23.8295C80.0999 23.5492 80.3575 23.1761 80.5241 22.7102C80.6946 22.2443 80.7798 21.7311 80.7798 21.1705C80.7798 20.6136 80.6946 20.1023 80.5241 19.6364C80.3575 19.1667 80.0999 18.7898 79.7514 18.5057C79.4029 18.2216 78.9635 18.0795 78.4332 18.0795C77.8991 18.0795 77.456 18.2216 77.1037 18.5057C76.7552 18.7898 76.4957 19.1667 76.3253 19.6364C76.1586 20.1023 76.0753 20.6136 76.0753 21.1705C76.0753 21.7311 76.1586 22.2443 76.3253 22.7102C76.4957 23.1761 76.7552 23.5492 77.1037 23.8295C77.456 24.1098 77.8991 24.25 78.4332 24.25ZM84.392 25.5V16.7727H86.0341V18.1591H86.125C86.2841 17.6894 86.5644 17.3201 86.9659 17.0511C87.3712 16.7784 87.8295 16.642 88.3409 16.642C88.447 16.642 88.572 16.6458 88.7159 16.6534C88.8636 16.661 88.9792 16.6705 89.0625 16.6818V18.3068C88.9943 18.2879 88.8731 18.267 88.6989 18.2443C88.5246 18.2178 88.3504 18.2045 88.1761 18.2045C87.7746 18.2045 87.4167 18.2898 87.1023 18.4602C86.7917 18.6269 86.5455 18.8598 86.3636 19.1591C86.1818 19.4545 86.0909 19.7917 86.0909 20.1705V25.5H84.392ZM93.9815 25.6761C93.1217 25.6761 92.3812 25.4924 91.7599 25.125C91.1425 24.7538 90.6652 24.233 90.3281 23.5625C89.9948 22.8883 89.8281 22.0985 89.8281 21.1932C89.8281 20.2992 89.9948 19.5114 90.3281 18.8295C90.6652 18.1477 91.1349 17.6155 91.7372 17.233C92.3433 16.8504 93.0516 16.6591 93.8622 16.6591C94.3546 16.6591 94.8319 16.7405 95.294 16.9034C95.7562 17.0663 96.1709 17.322 96.5384 17.6705C96.9058 18.0189 97.1955 18.4716 97.4077 19.0284C97.6198 19.5814 97.7259 20.2538 97.7259 21.0455V21.6477H90.7884V20.375H96.0611C96.0611 19.928 95.9702 19.5322 95.7884 19.1875C95.6065 18.839 95.3509 18.5644 95.0213 18.3636C94.6955 18.1629 94.313 18.0625 93.8736 18.0625C93.3963 18.0625 92.9796 18.1799 92.6236 18.4148C92.2713 18.6458 91.9986 18.9489 91.8054 19.3239C91.616 19.6951 91.5213 20.0985 91.5213 20.5341V21.5284C91.5213 22.1117 91.6236 22.608 91.8281 23.017C92.0365 23.4261 92.3262 23.7386 92.6974 23.9545C93.0687 24.1667 93.5024 24.2727 93.9986 24.2727C94.3205 24.2727 94.6141 24.2273 94.8793 24.1364C95.1444 24.0417 95.3736 23.9015 95.5668 23.7159C95.7599 23.5303 95.9077 23.3011 96.0099 23.0284L97.6179 23.3182C97.4891 23.7917 97.258 24.2064 96.9247 24.5625C96.5952 24.9148 96.1804 25.1894 95.6804 25.3864C95.1842 25.5795 94.6179 25.6761 93.9815 25.6761Z" fill="#349705"/>
</svg>
