<svg width="172" height="41" viewBox="0 0 172 41" fill="none" xmlns="http://www.w3.org/2000/svg">
<rect width="172" height="40" transform="translate(0 0.5)" fill="#349705"/>
<path d="M44.6477 14.3636H47.2273L50.6818 22.7955H50.8182L54.2727 14.3636H56.8523V26H54.8295V18.0057H54.7216L51.5057 25.9659H49.9943L46.7784 17.9886H46.6705V26H44.6477V14.3636ZM61.5682 26.1761C61.0152 26.1761 60.517 26.0777 60.0739 25.8807C59.6345 25.6799 59.286 25.3845 59.0284 24.9943C58.7746 24.6042 58.6477 24.1231 58.6477 23.5511C58.6477 23.0587 58.7386 22.6515 58.9205 22.3295C59.1023 22.0076 59.3504 21.75 59.6648 21.5568C59.9792 21.3636 60.3333 21.2178 60.7273 21.1193C61.125 21.017 61.536 20.9432 61.9602 20.8977C62.4716 20.8447 62.8864 20.7973 63.2045 20.7557C63.5227 20.7102 63.7538 20.642 63.8977 20.5511C64.0455 20.4564 64.1193 20.3106 64.1193 20.1136V20.0795C64.1193 19.6515 63.9924 19.3201 63.7386 19.0852C63.4848 18.8504 63.1193 18.733 62.642 18.733C62.1383 18.733 61.7386 18.8428 61.4432 19.0625C61.1515 19.2822 60.9545 19.5417 60.8523 19.8409L58.9318 19.5682C59.0833 19.0379 59.3333 18.5947 59.6818 18.2386C60.0303 17.8788 60.4564 17.6098 60.9602 17.4318C61.464 17.25 62.0208 17.1591 62.6307 17.1591C63.0511 17.1591 63.4697 17.2083 63.8864 17.3068C64.303 17.4053 64.6837 17.5682 65.0284 17.7955C65.3731 18.0189 65.6496 18.3239 65.858 18.7102C66.0701 19.0966 66.1761 19.5795 66.1761 20.1591V26H64.1989V24.8011H64.1307C64.0057 25.0436 63.8295 25.2708 63.6023 25.483C63.3788 25.6913 63.0966 25.8598 62.7557 25.9886C62.4186 26.1136 62.0227 26.1761 61.5682 26.1761ZM62.1023 24.6648C62.5152 24.6648 62.8731 24.5833 63.1761 24.4205C63.4792 24.2538 63.7121 24.0341 63.875 23.7614C64.0417 23.4886 64.125 23.1913 64.125 22.8693V21.8409C64.0606 21.8939 63.9508 21.9432 63.7955 21.9886C63.6439 22.0341 63.4735 22.0739 63.2841 22.108C63.0947 22.142 62.9072 22.1723 62.7216 22.1989C62.536 22.2254 62.375 22.2481 62.2386 22.267C61.9318 22.3087 61.6572 22.3769 61.4148 22.4716C61.1723 22.5663 60.9811 22.6989 60.8409 22.8693C60.7008 23.036 60.6307 23.2519 60.6307 23.517C60.6307 23.8958 60.7689 24.1818 61.0455 24.375C61.322 24.5682 61.6742 24.6648 62.1023 24.6648ZM68.2443 26V17.2727H70.3011V26H68.2443ZM69.2784 16.0341C68.9527 16.0341 68.6723 15.9261 68.4375 15.7102C68.2027 15.4905 68.0852 15.2273 68.0852 14.9205C68.0852 14.6098 68.2027 14.3466 68.4375 14.1307C68.6723 13.911 68.9527 13.8011 69.2784 13.8011C69.608 13.8011 69.8883 13.911 70.1193 14.1307C70.3542 14.3466 70.4716 14.6098 70.4716 14.9205C70.4716 15.2273 70.3542 15.4905 70.1193 15.7102C69.8883 15.9261 69.608 16.0341 69.2784 16.0341ZM74.473 20.8864V26H72.4162V17.2727H74.3821V18.7557H74.4844C74.6851 18.267 75.0052 17.8788 75.4446 17.5909C75.8878 17.303 76.4351 17.1591 77.0866 17.1591C77.6889 17.1591 78.2135 17.2879 78.6605 17.5455C79.1113 17.803 79.4598 18.1761 79.706 18.6648C79.956 19.1534 80.0791 19.7462 80.0753 20.4432V26H78.0185V20.7614C78.0185 20.178 77.867 19.7216 77.5639 19.392C77.2647 19.0625 76.8499 18.8977 76.3196 18.8977C75.9598 18.8977 75.6397 18.9773 75.3594 19.1364C75.0829 19.2917 74.8651 19.517 74.706 19.8125C74.5507 20.108 74.473 20.4659 74.473 20.8864ZM86.1349 26V17.2727H88.1009V18.7557H88.2031C88.3849 18.2557 88.6861 17.8655 89.1065 17.5852C89.527 17.3011 90.0289 17.1591 90.6122 17.1591C91.2031 17.1591 91.7012 17.303 92.1065 17.5909C92.5156 17.875 92.8035 18.2633 92.9702 18.7557H93.0611C93.2543 18.2708 93.58 17.8845 94.0384 17.5966C94.5005 17.3049 95.0478 17.1591 95.6804 17.1591C96.4834 17.1591 97.1387 17.4129 97.6463 17.9205C98.1539 18.428 98.4077 19.1686 98.4077 20.142V26H96.3452V20.4602C96.3452 19.9186 96.2012 19.5227 95.9134 19.2727C95.6255 19.0189 95.2732 18.892 94.8565 18.892C94.3603 18.892 93.9721 19.0473 93.6918 19.358C93.4152 19.6648 93.277 20.0644 93.277 20.5568V26H91.2599V20.375C91.2599 19.9242 91.1236 19.5644 90.8509 19.2955C90.5819 19.0265 90.2296 18.892 89.794 18.892C89.4986 18.892 89.2296 18.9678 88.9872 19.1193C88.7448 19.267 88.5516 19.4773 88.4077 19.75C88.2637 20.0189 88.1918 20.3333 88.1918 20.6932V26H86.1349ZM104.358 26.1705C103.483 26.1705 102.727 25.9886 102.091 25.625C101.458 25.2576 100.972 24.7386 100.631 24.0682C100.29 23.3939 100.119 22.6004 100.119 21.6875C100.119 20.7898 100.29 20.0019 100.631 19.3239C100.975 18.642 101.456 18.1117 102.074 17.733C102.691 17.3504 103.417 17.1591 104.25 17.1591C104.788 17.1591 105.295 17.2462 105.773 17.4205C106.254 17.5909 106.678 17.8561 107.045 18.2159C107.417 18.5758 107.708 19.0341 107.92 19.5909C108.133 20.1439 108.239 20.803 108.239 21.5682V22.1989H101.085V20.8125H106.267C106.263 20.4186 106.178 20.0682 106.011 19.7614C105.845 19.4508 105.612 19.2064 105.312 19.0284C105.017 18.8504 104.672 18.7614 104.278 18.7614C103.858 18.7614 103.489 18.8636 103.17 19.0682C102.852 19.2689 102.604 19.5341 102.426 19.8636C102.252 20.1894 102.163 20.5473 102.159 20.9375V22.1477C102.159 22.6553 102.252 23.0909 102.438 23.4545C102.623 23.8144 102.883 24.0909 103.216 24.2841C103.549 24.4735 103.939 24.5682 104.386 24.5682C104.686 24.5682 104.956 24.5265 105.199 24.4432C105.441 24.3561 105.652 24.2292 105.83 24.0625C106.008 23.8958 106.142 23.6894 106.233 23.4432L108.153 23.6591C108.032 24.1667 107.801 24.6098 107.46 24.9886C107.123 25.3636 106.691 25.6553 106.165 25.8636C105.638 26.0682 105.036 26.1705 104.358 26.1705ZM112.036 20.8864V26H109.979V17.2727H111.945V18.7557H112.047C112.248 18.267 112.568 17.8788 113.007 17.5909C113.45 17.303 113.998 17.1591 114.649 17.1591C115.251 17.1591 115.776 17.2879 116.223 17.5455C116.674 17.803 117.022 18.1761 117.268 18.6648C117.518 19.1534 117.642 19.7462 117.638 20.4432V26H115.581V20.7614C115.581 20.178 115.429 19.7216 115.126 19.392C114.827 19.0625 114.412 18.8977 113.882 18.8977C113.522 18.8977 113.202 18.9773 112.922 19.1364C112.645 19.2917 112.428 19.517 112.268 19.8125C112.113 20.108 112.036 20.4659 112.036 20.8864ZM125.291 22.3295V17.2727H127.348V26H125.354V24.4489H125.263C125.066 24.9375 124.742 25.3371 124.291 25.6477C123.844 25.9583 123.293 26.1136 122.638 26.1136C122.066 26.1136 121.56 25.9867 121.121 25.733C120.685 25.4754 120.344 25.1023 120.098 24.6136C119.852 24.1212 119.729 23.5265 119.729 22.8295V17.2727H121.786V22.5114C121.786 23.0644 121.937 23.5038 122.24 23.8295C122.543 24.1553 122.941 24.3182 123.433 24.3182C123.736 24.3182 124.03 24.2443 124.314 24.0966C124.598 23.9489 124.831 23.7292 125.013 23.4375C125.198 23.142 125.291 22.7727 125.291 22.3295Z" fill="white"/>
</svg>
