<svg width="110" height="36" viewBox="0 0 110 36" fill="none" xmlns="http://www.w3.org/2000/svg">
<mask id="path-1-inside-1_1_337" fill="white">
<path d="M0 0H110V36H0V0Z"/>
</mask>
<path d="M110 34H0V38H110V34Z" fill="#349705" mask="url(#path-1-inside-1_1_337)"/>
<path d="M8.918 28.364C8.106 28.364 7.42467 28.2567 6.874 28.042C6.32333 27.8367 5.88 27.6313 5.544 27.426C5.21733 27.2113 4.97933 27.104 4.83 27.104C4.69933 27.104 4.56867 27.1693 4.438 27.3C4.30733 27.4307 4.172 27.5847 4.032 27.762C3.90133 27.93 3.77067 28.0793 3.64 28.21C3.50933 28.3407 3.374 28.406 3.234 28.406C3.10333 28.406 2.99133 28.364 2.898 28.28C2.80467 28.196 2.73933 28.0653 2.702 27.888L1.694 22.652C1.67533 22.5213 1.68933 22.4093 1.736 22.316C1.792 22.2133 1.88067 22.1433 2.002 22.106C2.13267 22.05 2.24933 22.05 2.352 22.106C2.464 22.162 2.55733 22.2647 2.632 22.414C3.276 23.7113 3.92467 24.7287 4.578 25.466C5.24067 26.194 5.908 26.7073 6.58 27.006C7.26133 27.3047 7.94267 27.454 8.624 27.454C9.604 27.454 10.3787 27.1973 10.948 26.684C11.5267 26.1613 11.816 25.4287 11.816 24.486C11.8253 23.8887 11.6993 23.3473 11.438 22.862C11.1767 22.3767 10.7053 21.9147 10.024 21.476C9.352 21.0373 8.386 20.608 7.126 20.188C5.68867 19.6933 4.536 19.1427 3.668 18.536C2.8 17.92 2.17 17.22 1.778 16.436C1.39533 15.6427 1.204 14.742 1.204 13.734C1.204 12.614 1.47933 11.6293 2.03 10.78C2.58067 9.93067 3.346 9.268 4.326 8.792C5.306 8.316 6.43533 8.078 7.714 8.078C8.53533 8.078 9.212 8.16667 9.744 8.344C10.276 8.52133 10.7053 8.70333 11.032 8.89C11.3587 9.07667 11.62 9.17 11.816 9.17C11.984 9.17 12.152 9.07667 12.32 8.89C12.4973 8.694 12.6747 8.50267 12.852 8.316C13.0293 8.12 13.2113 8.022 13.398 8.022C13.5287 8.022 13.6407 8.064 13.734 8.148C13.8273 8.232 13.902 8.386 13.958 8.61L15.358 13.846C15.4047 14.0047 15.4 14.1447 15.344 14.266C15.2973 14.378 15.2133 14.4573 15.092 14.504C14.9613 14.5507 14.84 14.546 14.728 14.49C14.6253 14.434 14.5367 14.336 14.462 14.196C13.762 12.8613 13.062 11.816 12.362 11.06C11.662 10.2947 10.9527 9.758 10.234 9.45C9.52467 9.13267 8.80133 8.974 8.064 8.974C7.10267 8.974 6.32333 9.268 5.726 9.856C5.138 10.4347 4.844 11.214 4.844 12.194C4.844 12.8007 4.97 13.356 5.222 13.86C5.474 14.364 5.92667 14.8447 6.58 15.302C7.23333 15.75 8.16667 16.1933 9.38 16.632C10.864 17.1733 12.04 17.7473 12.908 18.354C13.776 18.9607 14.392 19.6373 14.756 20.384C15.1293 21.1213 15.316 21.9567 15.316 22.89C15.316 23.898 15.064 24.8173 14.56 25.648C14.056 26.4787 13.328 27.1413 12.376 27.636C11.424 28.1213 10.2713 28.364 8.918 28.364ZM20.6649 20.216H28.4209L28.4769 21.14H20.5809L20.6649 20.216ZM21.9109 27.608C21.9109 27.72 21.8689 27.8133 21.7849 27.888C21.7009 27.9627 21.5702 28 21.3929 28H16.9689C16.7915 28 16.6609 27.9627 16.5769 27.888C16.4929 27.8133 16.4509 27.72 16.4509 27.608C16.4509 27.5147 16.4789 27.44 16.5349 27.384C16.5909 27.3187 16.6795 27.258 16.8009 27.202L17.2909 27.02C17.5802 26.8987 17.8322 26.7027 18.0469 26.432C18.2709 26.1613 18.4809 25.718 18.6769 25.102L23.1709 10.64C23.2922 10.248 23.3109 9.954 23.2269 9.758C23.1522 9.55267 22.9609 9.394 22.6529 9.282C22.4662 9.198 22.3309 9.12333 22.2469 9.058C22.1629 8.98333 22.1209 8.89467 22.1209 8.792C22.1209 8.66133 22.1629 8.56333 22.2469 8.498C22.3402 8.43267 22.4755 8.4 22.6529 8.4H28.8689C29.0462 8.4 29.1769 8.43267 29.2609 8.498C29.3542 8.56333 29.4009 8.66133 29.4009 8.792C29.4009 8.89467 29.3589 8.98333 29.2749 9.058C29.2002 9.13267 29.0742 9.20267 28.8969 9.268C28.6542 9.324 28.5095 9.41267 28.4629 9.534C28.4162 9.646 28.4395 9.842 28.5329 10.122L33.6849 25.998C33.7969 26.3433 33.9322 26.6047 34.0909 26.782C34.2495 26.95 34.4642 27.0667 34.7349 27.132C34.9122 27.1973 35.0289 27.2673 35.0849 27.342C35.1502 27.4073 35.1829 27.496 35.1829 27.608C35.1829 27.72 35.1362 27.8133 35.0429 27.888C34.9589 27.9627 34.8282 28 34.6509 28H28.4769C28.2995 28 28.1642 27.9627 28.0709 27.888C27.9869 27.8133 27.9449 27.72 27.9449 27.608C27.9449 27.5053 27.9775 27.426 28.0429 27.37C28.1082 27.3047 28.2109 27.2487 28.3509 27.202L29.0929 27.062C29.3262 26.9873 29.4522 26.88 29.4709 26.74C29.4989 26.5907 29.4615 26.362 29.3589 26.054L24.2069 9.982L24.6129 9.506L19.8109 25.004C19.6895 25.3867 19.6522 25.7087 19.6989 25.97C19.7455 26.2313 19.8715 26.446 20.0769 26.614C20.2822 26.782 20.5622 26.9313 20.9169 27.062L21.5189 27.202C21.6495 27.2487 21.7475 27.3047 21.8129 27.37C21.8782 27.426 21.9109 27.5053 21.9109 27.608ZM44.4242 9.226L43.4722 9.408C43.2669 9.45467 43.1082 9.52933 42.9962 9.632C42.8935 9.72533 42.8422 9.856 42.8422 10.024V26.306C42.8422 26.5953 42.9215 26.8007 43.0802 26.922C43.2482 27.0433 43.5002 27.104 43.8362 27.104H46.2862C46.7809 27.104 47.2242 27.0293 47.6162 26.88C48.0082 26.7213 48.3815 26.4367 48.7362 26.026C49.0909 25.6153 49.4502 25.0273 49.8142 24.262L50.8922 21.98C50.9669 21.8307 51.0509 21.7327 51.1442 21.686C51.2469 21.63 51.3635 21.616 51.4942 21.644C51.6342 21.6813 51.7322 21.7513 51.7882 21.854C51.8442 21.9473 51.8489 22.0827 51.8022 22.26L50.5142 27.762C50.4489 28.014 50.3695 28.1913 50.2762 28.294C50.1829 28.406 50.0522 28.462 49.8842 28.462C49.7442 28.462 49.5949 28.42 49.4362 28.336C49.2775 28.2613 49.0909 28.1867 48.8762 28.112C48.6615 28.0373 48.3955 28 48.0782 28H37.2422C37.0649 28 36.9342 27.9627 36.8502 27.888C36.7662 27.8133 36.7242 27.72 36.7242 27.608C36.7242 27.3933 36.8549 27.2487 37.1162 27.174L38.0682 26.992C38.2735 26.9453 38.4275 26.8753 38.5302 26.782C38.6422 26.6793 38.6982 26.544 38.6982 26.376V10.024C38.6982 9.856 38.6422 9.72533 38.5302 9.632C38.4275 9.52933 38.2735 9.45467 38.0682 9.408L37.1162 9.226C36.8549 9.15133 36.7242 9.00667 36.7242 8.792C36.7242 8.67067 36.7662 8.57733 36.8502 8.512C36.9342 8.43733 37.0649 8.4 37.2422 8.4H44.2982C44.4755 8.4 44.6062 8.43733 44.6902 8.512C44.7742 8.57733 44.8162 8.67067 44.8162 8.792C44.8162 9.00667 44.6855 9.15133 44.4242 9.226ZM56.4305 20.216H64.1865L64.2425 21.14H56.3465L56.4305 20.216ZM57.6765 27.608C57.6765 27.72 57.6345 27.8133 57.5505 27.888C57.4665 27.9627 57.3358 28 57.1585 28H52.7345C52.5572 28 52.4265 27.9627 52.3425 27.888C52.2585 27.8133 52.2165 27.72 52.2165 27.608C52.2165 27.5147 52.2445 27.44 52.3005 27.384C52.3565 27.3187 52.4452 27.258 52.5665 27.202L53.0565 27.02C53.3458 26.8987 53.5978 26.7027 53.8125 26.432C54.0365 26.1613 54.2465 25.718 54.4425 25.102L58.9365 10.64C59.0578 10.248 59.0765 9.954 58.9925 9.758C58.9178 9.55267 58.7265 9.394 58.4185 9.282C58.2318 9.198 58.0965 9.12333 58.0125 9.058C57.9285 8.98333 57.8865 8.89467 57.8865 8.792C57.8865 8.66133 57.9285 8.56333 58.0125 8.498C58.1058 8.43267 58.2412 8.4 58.4185 8.4H64.6345C64.8118 8.4 64.9425 8.43267 65.0265 8.498C65.1198 8.56333 65.1665 8.66133 65.1665 8.792C65.1665 8.89467 65.1245 8.98333 65.0405 9.058C64.9658 9.13267 64.8398 9.20267 64.6625 9.268C64.4198 9.324 64.2752 9.41267 64.2285 9.534C64.1818 9.646 64.2052 9.842 64.2985 10.122L69.4505 25.998C69.5625 26.3433 69.6978 26.6047 69.8565 26.782C70.0152 26.95 70.2298 27.0667 70.5005 27.132C70.6778 27.1973 70.7945 27.2673 70.8505 27.342C70.9158 27.4073 70.9485 27.496 70.9485 27.608C70.9485 27.72 70.9018 27.8133 70.8085 27.888C70.7245 27.9627 70.5938 28 70.4165 28H64.2425C64.0652 28 63.9298 27.9627 63.8365 27.888C63.7525 27.8133 63.7105 27.72 63.7105 27.608C63.7105 27.5053 63.7432 27.426 63.8085 27.37C63.8738 27.3047 63.9765 27.2487 64.1165 27.202L64.8585 27.062C65.0918 26.9873 65.2178 26.88 65.2365 26.74C65.2645 26.5907 65.2272 26.362 65.1245 26.054L59.9725 9.982L60.3785 9.506L55.5765 25.004C55.4552 25.3867 55.4178 25.7087 55.4645 25.97C55.5112 26.2313 55.6372 26.446 55.8425 26.614C56.0478 26.782 56.3278 26.9313 56.6825 27.062L57.2845 27.202C57.4152 27.2487 57.5132 27.3047 57.5785 27.37C57.6438 27.426 57.6765 27.5053 57.6765 27.608ZM72.4898 27.608C72.4898 27.384 72.6205 27.2393 72.8818 27.174L73.8618 26.992C74.0671 26.936 74.2165 26.8613 74.3098 26.768C74.4125 26.6653 74.4638 26.53 74.4638 26.362V10.052C74.4638 9.87467 74.4125 9.73933 74.3098 9.646C74.2165 9.54333 74.0671 9.464 73.8618 9.408L72.8678 9.226C72.6158 9.15133 72.4898 9.00667 72.4898 8.792C72.4898 8.66133 72.5318 8.56333 72.6158 8.498C72.6998 8.43267 72.8305 8.4 73.0078 8.4H80.1478C81.8558 8.4 83.4145 8.652 84.8238 9.156C86.2331 9.65067 87.4465 10.3647 88.4638 11.298C89.4811 12.2313 90.2651 13.3513 90.8158 14.658C91.3665 15.9553 91.6418 17.4067 91.6418 19.012C91.6418 20.8133 91.2265 22.3907 90.3958 23.744C89.5745 25.088 88.4031 26.1333 86.8818 26.88C85.3698 27.6267 83.5778 28 81.5058 28H73.0078C72.8305 28 72.6998 27.9673 72.6158 27.902C72.5318 27.8273 72.4898 27.7293 72.4898 27.608ZM81.2678 27.118C82.4625 27.118 83.5125 26.8193 84.4178 26.222C85.3231 25.6247 86.0325 24.71 86.5458 23.478C87.0591 22.246 87.3158 20.678 87.3158 18.774C87.3158 17.2807 87.1431 15.946 86.7978 14.77C86.4618 13.594 85.9671 12.6 85.3138 11.788C84.6698 10.9667 83.8905 10.346 82.9758 9.926C82.0611 9.49667 81.0298 9.282 79.8818 9.282H78.6078V26.18C78.6078 26.4973 78.6965 26.7353 78.8738 26.894C79.0605 27.0433 79.3311 27.118 79.6858 27.118H81.2678ZM101.504 28.364C100.692 28.364 100.011 28.2567 99.4599 28.042C98.9093 27.8367 98.4659 27.6313 98.1299 27.426C97.8033 27.2113 97.5653 27.104 97.4159 27.104C97.2853 27.104 97.1546 27.1693 97.0239 27.3C96.8933 27.4307 96.7579 27.5847 96.6179 27.762C96.4873 27.93 96.3566 28.0793 96.2259 28.21C96.0953 28.3407 95.9599 28.406 95.8199 28.406C95.6893 28.406 95.5773 28.364 95.4839 28.28C95.3906 28.196 95.3253 28.0653 95.2879 27.888L94.2799 22.652C94.2613 22.5213 94.2753 22.4093 94.3219 22.316C94.3779 22.2133 94.4666 22.1433 94.5879 22.106C94.7186 22.05 94.8353 22.05 94.9379 22.106C95.0499 22.162 95.1433 22.2647 95.2179 22.414C95.8619 23.7113 96.5106 24.7287 97.1639 25.466C97.8266 26.194 98.4939 26.7073 99.1659 27.006C99.8473 27.3047 100.529 27.454 101.21 27.454C102.19 27.454 102.965 27.1973 103.534 26.684C104.113 26.1613 104.402 25.4287 104.402 24.486C104.411 23.8887 104.285 23.3473 104.024 22.862C103.763 22.3767 103.291 21.9147 102.61 21.476C101.938 21.0373 100.972 20.608 99.7119 20.188C98.2746 19.6933 97.1219 19.1427 96.2539 18.536C95.3859 17.92 94.7559 17.22 94.3639 16.436C93.9813 15.6427 93.7899 14.742 93.7899 13.734C93.7899 12.614 94.0653 11.6293 94.6159 10.78C95.1666 9.93067 95.9319 9.268 96.9119 8.792C97.8919 8.316 99.0213 8.078 100.3 8.078C101.121 8.078 101.798 8.16667 102.33 8.344C102.862 8.52133 103.291 8.70333 103.618 8.89C103.945 9.07667 104.206 9.17 104.402 9.17C104.57 9.17 104.738 9.07667 104.906 8.89C105.083 8.694 105.261 8.50267 105.438 8.316C105.615 8.12 105.797 8.022 105.984 8.022C106.115 8.022 106.227 8.064 106.32 8.148C106.413 8.232 106.488 8.386 106.544 8.61L107.944 13.846C107.991 14.0047 107.986 14.1447 107.93 14.266C107.883 14.378 107.799 14.4573 107.678 14.504C107.547 14.5507 107.426 14.546 107.314 14.49C107.211 14.434 107.123 14.336 107.048 14.196C106.348 12.8613 105.648 11.816 104.948 11.06C104.248 10.2947 103.539 9.758 102.82 9.45C102.111 9.13267 101.387 8.974 100.65 8.974C99.6886 8.974 98.9093 9.268 98.3119 9.856C97.7239 10.4347 97.4299 11.214 97.4299 12.194C97.4299 12.8007 97.5559 13.356 97.8079 13.86C98.0599 14.364 98.5126 14.8447 99.1659 15.302C99.8193 15.75 100.753 16.1933 101.966 16.632C103.45 17.1733 104.626 17.7473 105.494 18.354C106.362 18.9607 106.978 19.6373 107.342 20.384C107.715 21.1213 107.902 21.9567 107.902 22.89C107.902 23.898 107.65 24.8173 107.146 25.648C106.642 26.4787 105.914 27.1413 104.962 27.636C104.01 28.1213 102.857 28.364 101.504 28.364Z" fill="black"/>
</svg>
