<svg width="195" height="36" viewBox="0 0 195 36" fill="none" xmlns="http://www.w3.org/2000/svg">
<mask id="path-1-inside-1_1_343" fill="white">
<path d="M0 0H195V36H0V0Z"/>
</mask>
<path d="M195 34H0V38H195V34Z" fill="#349705" mask="url(#path-1-inside-1_1_343)"/>
<path d="M12.88 21.784L11.97 22.26L16.884 9.296C17.0053 8.95067 17.1453 8.71733 17.304 8.596C17.472 8.46533 17.7007 8.4 17.99 8.4H22.33C22.5073 8.4 22.638 8.43733 22.722 8.512C22.8153 8.57733 22.862 8.67067 22.862 8.792C22.862 8.89467 22.8293 8.98333 22.764 9.058C22.6987 9.13267 22.596 9.18867 22.456 9.226L21.532 9.422C21.28 9.478 21.1073 9.58067 21.014 9.73C20.9207 9.87933 20.8833 10.1033 20.902 10.402L22.036 26.152C22.0547 26.432 22.106 26.628 22.19 26.74C22.2833 26.8427 22.4513 26.9267 22.694 26.992L23.59 27.174C23.7207 27.202 23.814 27.2533 23.87 27.328C23.9353 27.3933 23.968 27.482 23.968 27.594C23.968 27.706 23.9213 27.804 23.828 27.888C23.744 27.9627 23.6133 28 23.436 28H16.464C16.2867 28 16.1513 27.9627 16.058 27.888C15.974 27.8133 15.932 27.72 15.932 27.608C15.932 27.496 15.96 27.4073 16.016 27.342C16.0813 27.2673 16.1887 27.2113 16.338 27.174L17.234 26.992C17.5047 26.9267 17.6867 26.8333 17.78 26.712C17.8827 26.5907 17.9247 26.404 17.906 26.152L16.744 10.556L17.556 10.43L11.76 26.082C11.6387 26.39 11.5173 26.5907 11.396 26.684C11.284 26.7773 11.1533 26.824 11.004 26.824C10.892 26.824 10.7893 26.8053 10.696 26.768C10.6027 26.7307 10.514 26.656 10.43 26.544C10.3553 26.432 10.2713 26.264 10.178 26.04L4.074 10.766L4.858 10.346L3.668 25.466C3.64 25.858 3.74267 26.1753 3.976 26.418C4.20933 26.6513 4.52667 26.838 4.928 26.978L5.824 27.216C5.92667 27.2533 6.006 27.3 6.062 27.356C6.118 27.412 6.146 27.4913 6.146 27.594C6.146 27.7153 6.104 27.8133 6.02 27.888C5.936 27.9627 5.80533 28 5.628 28H0.798C0.620667 28 0.49 27.9627 0.406 27.888C0.322 27.8133 0.28 27.72 0.28 27.608C0.28 27.4773 0.317333 27.384 0.392 27.328C0.476 27.2627 0.578667 27.2067 0.7 27.16L1.386 26.964C1.75 26.8427 2.044 26.6607 2.268 26.418C2.50133 26.1753 2.63667 25.8487 2.674 25.438L3.808 11.046C3.84533 10.542 3.81267 10.164 3.71 9.912C3.61667 9.65067 3.42533 9.48733 3.136 9.422L2.296 9.268C2.13733 9.22133 2.016 9.16533 1.932 9.1C1.85733 9.02533 1.82 8.92733 1.82 8.806C1.82 8.53533 2.016 8.4 2.408 8.4H6.762C7.02333 8.4 7.23333 8.456 7.392 8.568C7.56 8.68 7.70933 8.904 7.84 9.24L12.88 21.784ZM28.868 20.216H36.624L36.68 21.14H28.784L28.868 20.216ZM30.114 27.608C30.114 27.72 30.072 27.8133 29.988 27.888C29.904 27.9627 29.7733 28 29.596 28H25.172C24.9947 28 24.864 27.9627 24.78 27.888C24.696 27.8133 24.654 27.72 24.654 27.608C24.654 27.5147 24.682 27.44 24.738 27.384C24.794 27.3187 24.8827 27.258 25.004 27.202L25.494 27.02C25.7833 26.8987 26.0353 26.7027 26.25 26.432C26.474 26.1613 26.684 25.718 26.88 25.102L31.374 10.64C31.4953 10.248 31.514 9.954 31.43 9.758C31.3553 9.55267 31.164 9.394 30.856 9.282C30.6693 9.198 30.534 9.12333 30.45 9.058C30.366 8.98333 30.324 8.89467 30.324 8.792C30.324 8.66133 30.366 8.56333 30.45 8.498C30.5433 8.43267 30.6787 8.4 30.856 8.4H37.072C37.2493 8.4 37.38 8.43267 37.464 8.498C37.5573 8.56333 37.604 8.66133 37.604 8.792C37.604 8.89467 37.562 8.98333 37.478 9.058C37.4033 9.13267 37.2773 9.20267 37.1 9.268C36.8573 9.324 36.7127 9.41267 36.666 9.534C36.6193 9.646 36.6427 9.842 36.736 10.122L41.888 25.998C42 26.3433 42.1353 26.6047 42.294 26.782C42.4527 26.95 42.6673 27.0667 42.938 27.132C43.1153 27.1973 43.232 27.2673 43.288 27.342C43.3533 27.4073 43.386 27.496 43.386 27.608C43.386 27.72 43.3393 27.8133 43.246 27.888C43.162 27.9627 43.0313 28 42.854 28H36.68C36.5027 28 36.3673 27.9627 36.274 27.888C36.19 27.8133 36.148 27.72 36.148 27.608C36.148 27.5053 36.1807 27.426 36.246 27.37C36.3113 27.3047 36.414 27.2487 36.554 27.202L37.296 27.062C37.5293 26.9873 37.6553 26.88 37.674 26.74C37.702 26.5907 37.6647 26.362 37.562 26.054L32.41 9.982L32.816 9.506L28.014 25.004C27.8927 25.3867 27.8553 25.7087 27.902 25.97C27.9487 26.2313 28.0747 26.446 28.28 26.614C28.4853 26.782 28.7653 26.9313 29.12 27.062L29.722 27.202C29.8527 27.2487 29.9507 27.3047 30.016 27.37C30.0813 27.426 30.114 27.5053 30.114 27.608ZM51.0453 26.376C51.0453 26.544 51.0966 26.6793 51.1993 26.782C51.3113 26.8753 51.47 26.9453 51.6753 26.992L52.6273 27.174C52.8886 27.2487 53.0193 27.3933 53.0193 27.608C53.0193 27.72 52.9773 27.8133 52.8933 27.888C52.8093 27.9627 52.6786 28 52.5013 28H45.4453C45.268 28 45.1373 27.9627 45.0533 27.888C44.9693 27.8133 44.9273 27.72 44.9273 27.608C44.9273 27.3933 45.058 27.2487 45.3193 27.174L46.2713 26.992C46.4766 26.9453 46.6306 26.8753 46.7333 26.782C46.8453 26.6793 46.9013 26.544 46.9013 26.376V10.024C46.9013 9.856 46.8453 9.72533 46.7333 9.632C46.6306 9.52933 46.4766 9.45467 46.2713 9.408L45.3193 9.226C45.058 9.15133 44.9273 9.00667 44.9273 8.792C44.9273 8.67067 44.9693 8.57733 45.0533 8.512C45.1373 8.43733 45.268 8.4 45.4453 8.4H52.5013C52.6786 8.4 52.8093 8.43733 52.8933 8.512C52.9773 8.57733 53.0193 8.67067 53.0193 8.792C53.0193 9.00667 52.8886 9.15133 52.6273 9.226L51.6753 9.408C51.47 9.45467 51.3113 9.52933 51.1993 9.632C51.0966 9.72533 51.0453 9.856 51.0453 10.024V26.376ZM61.152 27.608C61.152 27.72 61.11 27.8133 61.026 27.888C60.942 27.9627 60.8113 28 60.634 28H55.65C55.4727 28 55.3373 27.9627 55.244 27.888C55.16 27.8133 55.118 27.72 55.118 27.608C55.118 27.412 55.2533 27.2627 55.524 27.16L56.266 26.95C56.686 26.8007 57.0033 26.6093 57.218 26.376C57.4327 26.1333 57.54 25.774 57.54 25.298V12.194C57.54 11.97 57.5167 11.7927 57.47 11.662C57.4233 11.5313 57.302 11.3447 57.106 11.102L55.874 9.324C55.7807 9.17467 55.706 9.058 55.65 8.974C55.6033 8.89 55.58 8.81067 55.58 8.736C55.58 8.624 55.6173 8.54 55.692 8.484C55.776 8.428 55.888 8.4 56.028 8.4H59.71C59.8873 8.4 60.032 8.43733 60.144 8.512C60.2653 8.58667 60.396 8.722 60.536 8.918L71.008 24.36L70.56 25.438V11.102C70.56 10.626 70.4573 10.2713 70.252 10.038C70.0467 9.79533 69.7247 9.59933 69.286 9.45L68.348 9.24C68.0773 9.128 67.942 8.97867 67.942 8.792C67.942 8.67067 67.984 8.57733 68.068 8.512C68.1613 8.43733 68.292 8.4 68.46 8.4H73.444C73.6213 8.4 73.752 8.43733 73.836 8.512C73.9293 8.57733 73.976 8.67067 73.976 8.792C73.976 8.988 73.8407 9.13733 73.57 9.24L72.828 9.45C72.408 9.59 72.0907 9.78133 71.876 10.024C71.6613 10.2573 71.554 10.6167 71.554 11.102V24.57C71.554 24.7847 71.5773 24.9713 71.624 25.13C71.6707 25.2793 71.7407 25.424 71.834 25.564L72.758 26.908C72.898 27.104 72.9867 27.2533 73.024 27.356C73.0613 27.4587 73.08 27.5473 73.08 27.622C73.08 27.734 73.038 27.8273 72.954 27.902C72.8793 27.9673 72.7627 28 72.604 28H68.74C68.4413 28 68.292 27.8693 68.292 27.608C68.292 27.5053 68.2687 27.4027 68.222 27.3C68.1847 27.188 68.082 27.02 67.914 26.796L57.54 11.564L58.534 11.06V25.298C58.534 25.7647 58.6367 26.1193 58.842 26.362C59.0567 26.6047 59.3787 26.8007 59.808 26.95L60.746 27.16C61.0167 27.2627 61.152 27.412 61.152 27.608ZM98.1238 22.554C98.0771 23.3193 97.8625 24.0567 97.4798 24.766C97.1065 25.466 96.5838 26.096 95.9118 26.656C95.2491 27.216 94.4558 27.6593 93.5318 27.986C92.6078 28.3127 91.5765 28.476 90.4378 28.476C88.4871 28.476 86.8025 28.0513 85.3838 27.202C83.9651 26.3433 82.8731 25.158 82.1078 23.646C81.3425 22.134 80.9598 20.384 80.9598 18.396C80.9598 16.8747 81.1885 15.4793 81.6458 14.21C82.1125 12.9407 82.7658 11.8393 83.6058 10.906C84.4458 9.97267 85.4398 9.24933 86.5878 8.736C87.7358 8.22267 88.9911 7.966 90.3538 7.966C91.2685 7.966 92.0245 8.064 92.6218 8.26C93.2191 8.44667 93.6811 8.638 94.0078 8.834C94.3438 9.02067 94.5818 9.114 94.7218 9.114C94.8991 9.114 95.0671 9.02533 95.2258 8.848C95.3938 8.67067 95.5571 8.49333 95.7158 8.316C95.8745 8.13867 96.0331 8.05 96.1918 8.05C96.2945 8.05 96.3831 8.08733 96.4578 8.162C96.5325 8.22733 96.5931 8.34867 96.6398 8.526L98.0678 13.664C98.1145 13.8133 98.1051 13.944 98.0398 14.056C97.9745 14.168 97.8718 14.2427 97.7318 14.28C97.5825 14.308 97.4471 14.2893 97.3258 14.224C97.2138 14.1587 97.1251 14.0467 97.0598 13.888C96.5558 12.684 95.9911 11.7227 95.3658 11.004C94.7405 10.2853 94.0685 9.76733 93.3498 9.45C92.6311 9.13267 91.8611 8.974 91.0398 8.974C90.2091 8.974 89.4391 9.16533 88.7298 9.548C88.0298 9.92133 87.4185 10.4673 86.8958 11.186C86.3731 11.9047 85.9671 12.7773 85.6778 13.804C85.3978 14.8213 85.2578 15.9787 85.2578 17.276C85.2578 19.2827 85.5471 20.972 86.1258 22.344C86.7045 23.7067 87.5025 24.738 88.5198 25.438C89.5371 26.1287 90.6991 26.474 92.0058 26.474C93.3218 26.474 94.4418 26.1287 95.3658 25.438C96.2991 24.738 96.9711 23.7627 97.3818 22.512C97.4471 22.372 97.5171 22.2787 97.5918 22.232C97.6665 22.176 97.7551 22.1573 97.8578 22.176C97.9511 22.1853 98.0165 22.2273 98.0538 22.302C98.1005 22.3673 98.1238 22.4513 98.1238 22.554ZM109.598 8.008C111.082 8.008 112.426 8.26 113.63 8.764C114.844 9.25867 115.884 9.96333 116.752 10.878C117.62 11.7833 118.283 12.8613 118.74 14.112C119.207 15.3627 119.44 16.7393 119.44 18.242C119.44 19.726 119.207 21.0933 118.74 22.344C118.283 23.5853 117.625 24.6587 116.766 25.564C115.908 26.4693 114.876 27.1693 113.672 27.664C112.478 28.1587 111.152 28.406 109.696 28.406C108.222 28.406 106.882 28.1587 105.678 27.664C104.474 27.1693 103.438 26.4647 102.57 25.55C101.702 24.6353 101.035 23.548 100.568 22.288C100.102 21.028 99.8683 19.6327 99.8683 18.102C99.8683 16.6273 100.102 15.274 100.568 14.042C101.035 12.81 101.698 11.746 102.556 10.85C103.424 9.94467 104.451 9.24467 105.636 8.75C106.831 8.25533 108.152 8.008 109.598 8.008ZM115.212 20.958C115.212 19.67 115.096 18.4333 114.862 17.248C114.638 16.0627 114.321 14.9707 113.91 13.972C113.5 12.964 113.019 12.0867 112.468 11.34C111.918 10.584 111.32 10.0007 110.676 9.59C110.032 9.17 109.356 8.96 108.646 8.96C107.741 8.96 106.948 9.212 106.266 9.716C105.594 10.22 105.067 10.948 104.684 11.9C104.311 12.852 104.124 14.014 104.124 15.386C104.124 16.6833 104.236 17.9293 104.46 19.124C104.694 20.3187 105.011 21.4247 105.412 22.442C105.823 23.45 106.304 24.332 106.854 25.088C107.405 25.8347 108.002 26.418 108.646 26.838C109.3 27.258 109.976 27.468 110.676 27.468C111.6 27.468 112.398 27.2207 113.07 26.726C113.752 26.222 114.279 25.4893 114.652 24.528C115.026 23.5573 115.212 22.3673 115.212 20.958ZM136.676 19.572L136.172 11.046C136.144 10.6073 136.027 10.2573 135.822 9.996C135.626 9.73467 135.304 9.548 134.856 9.436L134.044 9.254C133.857 9.20733 133.727 9.15133 133.652 9.086C133.587 9.01133 133.554 8.91333 133.554 8.792C133.554 8.68 133.596 8.58667 133.68 8.512C133.773 8.43733 133.899 8.4 134.058 8.4H139.168C139.336 8.4 139.462 8.43733 139.546 8.512C139.63 8.58667 139.672 8.68 139.672 8.792C139.672 8.91333 139.63 9.01133 139.546 9.086C139.471 9.15133 139.345 9.20733 139.168 9.254L138.44 9.436C137.983 9.55733 137.651 9.76267 137.446 10.052C137.241 10.332 137.152 10.6773 137.18 11.088L137.698 19.502C137.735 19.9967 137.768 20.482 137.796 20.958C137.824 21.4247 137.838 21.91 137.838 22.414C137.857 23.5527 137.619 24.5747 137.124 25.48C136.639 26.3853 135.878 27.104 134.842 27.636C133.806 28.1587 132.471 28.42 130.838 28.42C129.083 28.42 127.623 28.1773 126.456 27.692C125.299 27.1973 124.431 26.5113 123.852 25.634C123.283 24.7473 123.003 23.7253 123.012 22.568C123.012 22.3253 123.021 22.0173 123.04 21.644C123.059 21.2613 123.082 20.8507 123.11 20.412C123.138 19.9733 123.166 19.5393 123.194 19.11L123.726 10.066C123.745 9.87 123.693 9.72533 123.572 9.632C123.46 9.52933 123.269 9.45 122.998 9.394L122.102 9.254C121.766 9.17933 121.598 9.02533 121.598 8.792C121.598 8.68 121.64 8.58667 121.724 8.512C121.817 8.43733 121.948 8.4 122.116 8.4H129.48C129.639 8.4 129.76 8.43733 129.844 8.512C129.937 8.58667 129.984 8.68 129.984 8.792C129.984 8.91333 129.947 9.01133 129.872 9.086C129.797 9.15133 129.667 9.20267 129.48 9.24L128.556 9.394C128.323 9.44067 128.15 9.51533 128.038 9.618C127.935 9.71133 127.875 9.86067 127.856 10.066L127.338 19.054C127.291 19.7353 127.263 20.356 127.254 20.916C127.245 21.476 127.235 21.9613 127.226 22.372C127.217 24.0893 127.613 25.354 128.416 26.166C129.219 26.9687 130.32 27.37 131.72 27.37C132.765 27.37 133.666 27.174 134.422 26.782C135.187 26.3807 135.775 25.816 136.186 25.088C136.606 24.3507 136.811 23.478 136.802 22.47C136.793 21.8353 136.774 21.294 136.746 20.846C136.727 20.3887 136.704 19.964 136.676 19.572ZM158.598 15.19C158.598 16.1047 158.393 16.9353 157.982 17.682C157.581 18.4193 157.007 19.0353 156.26 19.53C155.513 20.0153 154.622 20.3513 153.586 20.538C153.297 20.5847 153.017 20.636 152.746 20.692C152.485 20.7387 152.219 20.7807 151.948 20.818C151.677 20.8553 151.383 20.874 151.066 20.874C150.413 20.874 149.815 20.832 149.274 20.748C148.742 20.6547 148.261 20.5287 147.832 20.37C147.412 20.202 147.034 19.9967 146.698 19.754L146.796 18.97C147.085 19.1847 147.407 19.3667 147.762 19.516C148.126 19.656 148.509 19.7587 148.91 19.824C149.321 19.8893 149.75 19.922 150.198 19.922C151.486 19.922 152.503 19.5393 153.25 18.774C153.997 17.9993 154.37 16.842 154.37 15.302C154.37 14.126 154.137 13.0807 153.67 12.166C153.213 11.2513 152.573 10.5373 151.752 10.024C150.931 9.50133 149.983 9.24 148.91 9.24H147.678V26.292C147.678 26.488 147.725 26.642 147.818 26.754C147.911 26.8567 148.061 26.936 148.266 26.992L149.302 27.174C149.451 27.2207 149.554 27.2767 149.61 27.342C149.666 27.4073 149.694 27.496 149.694 27.608C149.694 27.8693 149.521 28 149.176 28H142.078C141.901 28 141.77 27.9627 141.686 27.888C141.602 27.8133 141.56 27.72 141.56 27.608C141.56 27.3933 141.691 27.2487 141.952 27.174L142.904 26.992C143.119 26.936 143.277 26.8567 143.38 26.754C143.483 26.642 143.534 26.488 143.534 26.292V10.024C143.534 9.856 143.478 9.72533 143.366 9.632C143.263 9.52933 143.109 9.45467 142.904 9.408L141.952 9.226C141.691 9.15133 141.56 9.00667 141.56 8.792C141.56 8.67067 141.602 8.57733 141.686 8.512C141.77 8.43733 141.901 8.4 142.078 8.4H148.98C151.024 8.4 152.76 8.68467 154.188 9.254C155.625 9.82333 156.717 10.6167 157.464 11.634C158.22 12.6513 158.598 13.8367 158.598 15.19ZM150.646 20.44L154.622 19.992L158.444 26.208C158.621 26.5067 158.808 26.7213 159.004 26.852C159.209 26.9827 159.457 27.0853 159.746 27.16C159.933 27.216 160.059 27.2767 160.124 27.342C160.199 27.4073 160.236 27.496 160.236 27.608C160.236 27.72 160.189 27.8133 160.096 27.888C160.012 27.9627 159.881 28 159.704 28H153.516C153.18 28 153.012 27.8693 153.012 27.608C153.012 27.524 153.035 27.4587 153.082 27.412C153.129 27.3653 153.203 27.3187 153.306 27.272L153.81 27.16C154.015 27.076 154.137 26.9687 154.174 26.838C154.221 26.7073 154.169 26.5113 154.02 26.25L150.646 20.44ZM169.207 28.364C168.395 28.364 167.714 28.2567 167.163 28.042C166.612 27.8367 166.169 27.6313 165.833 27.426C165.506 27.2113 165.268 27.104 165.119 27.104C164.988 27.104 164.858 27.1693 164.727 27.3C164.596 27.4307 164.461 27.5847 164.321 27.762C164.19 27.93 164.06 28.0793 163.929 28.21C163.798 28.3407 163.663 28.406 163.523 28.406C163.392 28.406 163.28 28.364 163.187 28.28C163.094 28.196 163.028 28.0653 162.991 27.888L161.983 22.652C161.964 22.5213 161.978 22.4093 162.025 22.316C162.081 22.2133 162.17 22.1433 162.291 22.106C162.422 22.05 162.538 22.05 162.641 22.106C162.753 22.162 162.846 22.2647 162.921 22.414C163.565 23.7113 164.214 24.7287 164.867 25.466C165.53 26.194 166.197 26.7073 166.869 27.006C167.55 27.3047 168.232 27.454 168.913 27.454C169.893 27.454 170.668 27.1973 171.237 26.684C171.816 26.1613 172.105 25.4287 172.105 24.486C172.114 23.8887 171.988 23.3473 171.727 22.862C171.466 22.3767 170.994 21.9147 170.313 21.476C169.641 21.0373 168.675 20.608 167.415 20.188C165.978 19.6933 164.825 19.1427 163.957 18.536C163.089 17.92 162.459 17.22 162.067 16.436C161.684 15.6427 161.493 14.742 161.493 13.734C161.493 12.614 161.768 11.6293 162.319 10.78C162.87 9.93067 163.635 9.268 164.615 8.792C165.595 8.316 166.724 8.078 168.003 8.078C168.824 8.078 169.501 8.16667 170.033 8.344C170.565 8.52133 170.994 8.70333 171.321 8.89C171.648 9.07667 171.909 9.17 172.105 9.17C172.273 9.17 172.441 9.07667 172.609 8.89C172.786 8.694 172.964 8.50267 173.141 8.316C173.318 8.12 173.5 8.022 173.687 8.022C173.818 8.022 173.93 8.064 174.023 8.148C174.116 8.232 174.191 8.386 174.247 8.61L175.647 13.846C175.694 14.0047 175.689 14.1447 175.633 14.266C175.586 14.378 175.502 14.4573 175.381 14.504C175.25 14.5507 175.129 14.546 175.017 14.49C174.914 14.434 174.826 14.336 174.751 14.196C174.051 12.8613 173.351 11.816 172.651 11.06C171.951 10.2947 171.242 9.758 170.523 9.45C169.814 9.13267 169.09 8.974 168.353 8.974C167.392 8.974 166.612 9.268 166.015 9.856C165.427 10.4347 165.133 11.214 165.133 12.194C165.133 12.8007 165.259 13.356 165.511 13.86C165.763 14.364 166.216 14.8447 166.869 15.302C167.522 15.75 168.456 16.1933 169.669 16.632C171.153 17.1733 172.329 17.7473 173.197 18.354C174.065 18.9607 174.681 19.6373 175.045 20.384C175.418 21.1213 175.605 21.9567 175.605 22.89C175.605 23.898 175.353 24.8173 174.849 25.648C174.345 26.4787 173.617 27.1413 172.665 27.636C171.713 28.1213 170.56 28.364 169.207 28.364ZM182.951 17.57H187.067C187.739 17.57 188.219 17.43 188.509 17.15C188.807 16.87 189.013 16.3427 189.125 15.568C189.162 15.4093 189.213 15.2973 189.279 15.232C189.353 15.1667 189.442 15.1293 189.545 15.12C189.778 15.1107 189.927 15.246 189.993 15.526L191.239 19.992C191.285 20.1507 191.285 20.2767 191.239 20.37C191.201 20.454 191.127 20.5193 191.015 20.566C190.903 20.594 190.795 20.594 190.693 20.566C190.59 20.538 190.501 20.468 190.427 20.356C190.091 19.8427 189.783 19.4507 189.503 19.18C189.232 18.9 188.938 18.7087 188.621 18.606C188.313 18.5033 187.93 18.452 187.473 18.452H182.951V17.57ZM178.037 8.792C178.037 8.67067 178.079 8.57733 178.163 8.512C178.247 8.43733 178.377 8.4 178.555 8.4H189.811C190.091 8.4 190.329 8.36267 190.525 8.288C190.721 8.204 190.898 8.12467 191.057 8.05C191.215 7.966 191.369 7.924 191.519 7.924C191.687 7.924 191.813 7.97533 191.897 8.078C191.99 8.17133 192.069 8.34867 192.135 8.61L193.311 13.034C193.357 13.1833 193.357 13.3093 193.311 13.412C193.264 13.5053 193.18 13.5753 193.059 13.622C192.919 13.6593 192.793 13.6547 192.681 13.608C192.569 13.552 192.471 13.4493 192.387 13.3C191.911 12.46 191.477 11.7787 191.085 11.256C190.702 10.7333 190.329 10.332 189.965 10.052C189.61 9.76267 189.246 9.56667 188.873 9.464C188.499 9.352 188.084 9.296 187.627 9.296H184.155V26.068C184.155 26.4133 184.253 26.6747 184.449 26.852C184.654 27.02 184.948 27.104 185.331 27.104H187.921C188.527 27.104 189.078 26.9827 189.573 26.74C190.067 26.488 190.576 26.0073 191.099 25.298C191.621 24.5793 192.219 23.5293 192.891 22.148C192.965 22.008 193.049 21.9147 193.143 21.868C193.245 21.812 193.357 21.798 193.479 21.826C193.619 21.8447 193.717 21.91 193.773 22.022C193.838 22.1247 193.847 22.2647 193.801 22.442L192.471 27.762C192.405 28.0047 192.326 28.1773 192.233 28.28C192.139 28.392 192.004 28.448 191.827 28.448C191.677 28.448 191.523 28.4107 191.365 28.336C191.206 28.2613 191.019 28.1867 190.805 28.112C190.599 28.0373 190.343 28 190.035 28H178.555C178.377 28 178.247 27.9627 178.163 27.888C178.079 27.8133 178.037 27.72 178.037 27.608C178.037 27.3933 178.172 27.2487 178.443 27.174L179.381 26.992C179.595 26.9453 179.754 26.8753 179.857 26.782C179.959 26.6793 180.011 26.544 180.011 26.376V10.024C180.011 9.856 179.959 9.72533 179.857 9.632C179.754 9.52933 179.595 9.45467 179.381 9.408L178.443 9.226C178.172 9.15133 178.037 9.00667 178.037 8.792Z" fill="black"/>
</svg>
