<svg width="99" height="36" viewBox="0 0 99 36" fill="none" xmlns="http://www.w3.org/2000/svg">
<mask id="path-1-inside-1_1_350" fill="white">
<path d="M0 0H99V36H0V0Z"/>
</mask>
<path d="M99 34H0V38H99V34Z" fill="#349705" mask="url(#path-1-inside-1_1_350)"/>
<path d="M17.99 15.652C17.99 16.884 17.6867 17.9573 17.08 18.872C16.4733 19.7773 15.624 20.4773 14.532 20.972C13.4493 21.4667 12.18 21.714 10.724 21.714C9.69733 21.714 8.778 21.602 7.966 21.378C7.16333 21.154 6.44467 20.832 5.81 20.412L5.95 19.642C6.33267 19.9033 6.72 20.118 7.112 20.286C7.504 20.4447 7.90533 20.5613 8.316 20.636C8.72667 20.7107 9.142 20.748 9.562 20.748C10.402 20.748 11.1487 20.5473 11.802 20.146C12.4553 19.7447 12.9687 19.1567 13.342 18.382C13.7247 17.598 13.916 16.6553 13.916 15.554C13.916 14.2473 13.6873 13.1273 13.23 12.194C12.7727 11.2513 12.1333 10.5327 11.312 10.038C10.5 9.534 9.562 9.282 8.498 9.282H7.35V26.376C7.35 26.5347 7.40133 26.67 7.504 26.782C7.60667 26.8847 7.76067 26.9547 7.966 26.992L9.184 27.174C9.33333 27.1927 9.44067 27.2393 9.506 27.314C9.57133 27.3793 9.604 27.4773 9.604 27.608C9.604 27.72 9.562 27.8133 9.478 27.888C9.394 27.9627 9.26333 28 9.086 28H1.764C1.58667 28 1.45133 27.9627 1.358 27.888C1.274 27.8133 1.232 27.72 1.232 27.608C1.232 27.3933 1.36267 27.2487 1.624 27.174L2.604 26.978C2.80933 26.9313 2.95867 26.8613 3.052 26.768C3.15467 26.6653 3.206 26.5347 3.206 26.376V10.052C3.206 9.884 3.15467 9.74867 3.052 9.646C2.95867 9.54333 2.814 9.46867 2.618 9.422L1.61 9.226C1.358 9.15133 1.232 9.00667 1.232 8.792C1.232 8.67067 1.274 8.57733 1.358 8.512C1.442 8.43733 1.57267 8.4 1.75 8.4H8.554C10.4953 8.4 12.1707 8.708 13.58 9.324C14.9893 9.93067 16.0767 10.78 16.842 11.872C17.6073 12.964 17.99 14.224 17.99 15.652ZM25.9711 26.376C25.9711 26.544 26.0224 26.6793 26.1251 26.782C26.2371 26.8753 26.3958 26.9453 26.6011 26.992L27.5531 27.174C27.8144 27.2487 27.9451 27.3933 27.9451 27.608C27.9451 27.72 27.9031 27.8133 27.8191 27.888C27.7351 27.9627 27.6044 28 27.4271 28H20.3711C20.1938 28 20.0631 27.9627 19.9791 27.888C19.8951 27.8133 19.8531 27.72 19.8531 27.608C19.8531 27.3933 19.9838 27.2487 20.2451 27.174L21.1971 26.992C21.4024 26.9453 21.5564 26.8753 21.6591 26.782C21.7711 26.6793 21.8271 26.544 21.8271 26.376V10.024C21.8271 9.856 21.7711 9.72533 21.6591 9.632C21.5564 9.52933 21.4024 9.45467 21.1971 9.408L20.2451 9.226C19.9838 9.15133 19.8531 9.00667 19.8531 8.792C19.8531 8.67067 19.8951 8.57733 19.9791 8.512C20.0631 8.43733 20.1938 8.4 20.3711 8.4H27.4271C27.6044 8.4 27.7351 8.43733 27.8191 8.512C27.9031 8.57733 27.9451 8.67067 27.9451 8.792C27.9451 9.00667 27.8144 9.15133 27.5531 9.226L26.6011 9.408C26.3958 9.45467 26.2371 9.52933 26.1251 9.632C26.0224 9.72533 25.9711 9.856 25.9711 10.024V26.376ZM45.1078 9.394L34.1598 27.664L32.9418 27.118H39.7598C40.2731 27.118 40.7258 27.0667 41.1178 26.964C41.5098 26.8613 41.8691 26.67 42.1958 26.39C42.5224 26.11 42.8444 25.7087 43.1618 25.186C43.4884 24.6633 43.8338 23.9867 44.1978 23.156L44.5478 22.316C44.6038 22.176 44.6831 22.0827 44.7858 22.036C44.8884 21.98 45.0051 21.966 45.1358 21.994C45.2758 22.022 45.3691 22.0873 45.4158 22.19C45.4718 22.2927 45.4811 22.4187 45.4438 22.568L44.5198 27.72C44.4731 27.9533 44.3984 28.1213 44.2958 28.224C44.2024 28.336 44.0624 28.392 43.8758 28.392C43.7544 28.392 43.6238 28.3593 43.4838 28.294C43.3438 28.2287 43.1804 28.1633 42.9938 28.098C42.8164 28.0327 42.5971 28 42.3358 28H30.2538C30.0858 28 29.9598 27.9627 29.8758 27.888C29.8011 27.8133 29.7638 27.7153 29.7638 27.594C29.7638 27.51 29.7824 27.4213 29.8198 27.328C29.8571 27.2253 29.9131 27.1133 29.9878 26.992L40.9918 8.708L41.2718 9.282H35.6998C35.1118 9.282 34.5984 9.37533 34.1598 9.562C33.7304 9.74867 33.3338 10.0707 32.9698 10.528C32.6151 10.976 32.2464 11.606 31.8638 12.418L31.4858 13.328C31.4018 13.496 31.3038 13.608 31.1918 13.664C31.0891 13.7107 30.9771 13.72 30.8558 13.692C30.7158 13.6733 30.6131 13.6127 30.5478 13.51C30.4918 13.398 30.4778 13.2533 30.5058 13.076L31.3178 8.638C31.3644 8.40467 31.4391 8.23667 31.5418 8.134C31.6444 8.022 31.7891 7.966 31.9758 7.966C32.0971 7.966 32.2278 8.00333 32.3678 8.078C32.5078 8.14333 32.6711 8.21333 32.8578 8.288C33.0444 8.36267 33.2591 8.4 33.5018 8.4H44.8558C45.0238 8.4 45.1451 8.43733 45.2198 8.512C45.3038 8.57733 45.3458 8.67067 45.3458 8.792C45.3458 8.86667 45.3271 8.95533 45.2898 9.058C45.2524 9.15133 45.1918 9.26333 45.1078 9.394ZM62.1976 9.394L51.2496 27.664L50.0316 27.118H56.8496C57.363 27.118 57.8156 27.0667 58.2076 26.964C58.5996 26.8613 58.959 26.67 59.2856 26.39C59.6123 26.11 59.9343 25.7087 60.2516 25.186C60.5783 24.6633 60.9236 23.9867 61.2876 23.156L61.6376 22.316C61.6936 22.176 61.773 22.0827 61.8756 22.036C61.9783 21.98 62.095 21.966 62.2256 21.994C62.3656 22.022 62.459 22.0873 62.5056 22.19C62.5616 22.2927 62.571 22.4187 62.5336 22.568L61.6096 27.72C61.563 27.9533 61.4883 28.1213 61.3856 28.224C61.2923 28.336 61.1523 28.392 60.9656 28.392C60.8443 28.392 60.7136 28.3593 60.5736 28.294C60.4336 28.2287 60.2703 28.1633 60.0836 28.098C59.9063 28.0327 59.687 28 59.4256 28H47.3436C47.1756 28 47.0496 27.9627 46.9656 27.888C46.891 27.8133 46.8536 27.7153 46.8536 27.594C46.8536 27.51 46.8723 27.4213 46.9096 27.328C46.947 27.2253 47.003 27.1133 47.0776 26.992L58.0816 8.708L58.3616 9.282H52.7896C52.2016 9.282 51.6883 9.37533 51.2496 9.562C50.8203 9.74867 50.4236 10.0707 50.0596 10.528C49.705 10.976 49.3363 11.606 48.9536 12.418L48.5756 13.328C48.4916 13.496 48.3936 13.608 48.2816 13.664C48.179 13.7107 48.067 13.72 47.9456 13.692C47.8056 13.6733 47.703 13.6127 47.6376 13.51C47.5816 13.398 47.5676 13.2533 47.5956 13.076L48.4076 8.638C48.4543 8.40467 48.529 8.23667 48.6316 8.134C48.7343 8.022 48.879 7.966 49.0656 7.966C49.187 7.966 49.3176 8.00333 49.4576 8.078C49.5976 8.14333 49.761 8.21333 49.9476 8.288C50.1343 8.36267 50.349 8.4 50.5916 8.4H61.9456C62.1136 8.4 62.235 8.43733 62.3096 8.512C62.3936 8.57733 62.4356 8.67067 62.4356 8.792C62.4356 8.86667 62.417 8.95533 62.3796 9.058C62.3423 9.15133 62.2816 9.26333 62.1976 9.394ZM67.7235 20.216H75.4795L75.5355 21.14H67.6395L67.7235 20.216ZM68.9695 27.608C68.9695 27.72 68.9275 27.8133 68.8435 27.888C68.7595 27.9627 68.6288 28 68.4515 28H64.0275C63.8501 28 63.7195 27.9627 63.6355 27.888C63.5515 27.8133 63.5095 27.72 63.5095 27.608C63.5095 27.5147 63.5375 27.44 63.5935 27.384C63.6495 27.3187 63.7381 27.258 63.8595 27.202L64.3495 27.02C64.6388 26.8987 64.8908 26.7027 65.1055 26.432C65.3295 26.1613 65.5395 25.718 65.7355 25.102L70.2295 10.64C70.3508 10.248 70.3695 9.954 70.2855 9.758C70.2108 9.55267 70.0195 9.394 69.7115 9.282C69.5248 9.198 69.3895 9.12333 69.3055 9.058C69.2215 8.98333 69.1795 8.89467 69.1795 8.792C69.1795 8.66133 69.2215 8.56333 69.3055 8.498C69.3988 8.43267 69.5341 8.4 69.7115 8.4H75.9275C76.1048 8.4 76.2355 8.43267 76.3195 8.498C76.4128 8.56333 76.4595 8.66133 76.4595 8.792C76.4595 8.89467 76.4175 8.98333 76.3335 9.058C76.2588 9.13267 76.1328 9.20267 75.9555 9.268C75.7128 9.324 75.5681 9.41267 75.5215 9.534C75.4748 9.646 75.4981 9.842 75.5915 10.122L80.7435 25.998C80.8555 26.3433 80.9908 26.6047 81.1495 26.782C81.3081 26.95 81.5228 27.0667 81.7935 27.132C81.9708 27.1973 82.0875 27.2673 82.1435 27.342C82.2088 27.4073 82.2415 27.496 82.2415 27.608C82.2415 27.72 82.1948 27.8133 82.1015 27.888C82.0175 27.9627 81.8868 28 81.7095 28H75.5355C75.3581 28 75.2228 27.9627 75.1295 27.888C75.0455 27.8133 75.0035 27.72 75.0035 27.608C75.0035 27.5053 75.0361 27.426 75.1015 27.37C75.1668 27.3047 75.2695 27.2487 75.4095 27.202L76.1515 27.062C76.3848 26.9873 76.5108 26.88 76.5295 26.74C76.5575 26.5907 76.5201 26.362 76.4175 26.054L71.2655 9.982L71.6715 9.506L66.8695 25.004C66.7481 25.3867 66.7108 25.7087 66.7575 25.97C66.8041 26.2313 66.9301 26.446 67.1355 26.614C67.3408 26.782 67.6208 26.9313 67.9755 27.062L68.5775 27.202C68.7081 27.2487 68.8061 27.3047 68.8715 27.37C68.9368 27.426 68.9695 27.5053 68.9695 27.608ZM91.3868 28.364C90.5748 28.364 89.8934 28.2567 89.3428 28.042C88.7921 27.8367 88.3488 27.6313 88.0128 27.426C87.6861 27.2113 87.4481 27.104 87.2988 27.104C87.1681 27.104 87.0374 27.1693 86.9068 27.3C86.7761 27.4307 86.6408 27.5847 86.5008 27.762C86.3701 27.93 86.2394 28.0793 86.1088 28.21C85.9781 28.3407 85.8428 28.406 85.7028 28.406C85.5721 28.406 85.4601 28.364 85.3668 28.28C85.2734 28.196 85.2081 28.0653 85.1708 27.888L84.1628 22.652C84.1441 22.5213 84.1581 22.4093 84.2048 22.316C84.2608 22.2133 84.3494 22.1433 84.4708 22.106C84.6014 22.05 84.7181 22.05 84.8208 22.106C84.9328 22.162 85.0261 22.2647 85.1008 22.414C85.7448 23.7113 86.3934 24.7287 87.0468 25.466C87.7094 26.194 88.3768 26.7073 89.0488 27.006C89.7301 27.3047 90.4114 27.454 91.0928 27.454C92.0728 27.454 92.8474 27.1973 93.4168 26.684C93.9954 26.1613 94.2848 25.4287 94.2848 24.486C94.2941 23.8887 94.1681 23.3473 93.9068 22.862C93.6454 22.3767 93.1741 21.9147 92.4928 21.476C91.8208 21.0373 90.8548 20.608 89.5948 20.188C88.1574 19.6933 87.0048 19.1427 86.1368 18.536C85.2688 17.92 84.6388 17.22 84.2468 16.436C83.8641 15.6427 83.6728 14.742 83.6728 13.734C83.6728 12.614 83.9481 11.6293 84.4988 10.78C85.0494 9.93067 85.8148 9.268 86.7948 8.792C87.7748 8.316 88.9041 8.078 90.1827 8.078C91.0041 8.078 91.6808 8.16667 92.2128 8.344C92.7448 8.52133 93.1741 8.70333 93.5008 8.89C93.8274 9.07667 94.0888 9.17 94.2848 9.17C94.4528 9.17 94.6208 9.07667 94.7888 8.89C94.9661 8.694 95.1434 8.50267 95.3208 8.316C95.4981 8.12 95.6801 8.022 95.8668 8.022C95.9974 8.022 96.1094 8.064 96.2028 8.148C96.2961 8.232 96.3708 8.386 96.4268 8.61L97.8268 13.846C97.8734 14.0047 97.8688 14.1447 97.8128 14.266C97.7661 14.378 97.6821 14.4573 97.5608 14.504C97.4301 14.5507 97.3088 14.546 97.1968 14.49C97.0941 14.434 97.0054 14.336 96.9307 14.196C96.2308 12.8613 95.5308 11.816 94.8308 11.06C94.1308 10.2947 93.4214 9.758 92.7028 9.45C91.9934 9.13267 91.2701 8.974 90.5328 8.974C89.5714 8.974 88.7921 9.268 88.1948 9.856C87.6068 10.4347 87.3128 11.214 87.3128 12.194C87.3128 12.8007 87.4388 13.356 87.6908 13.86C87.9428 14.364 88.3954 14.8447 89.0488 15.302C89.7021 15.75 90.6354 16.1933 91.8488 16.632C93.3328 17.1733 94.5088 17.7473 95.3768 18.354C96.2448 18.9607 96.8608 19.6373 97.2248 20.384C97.5981 21.1213 97.7848 21.9567 97.7848 22.89C97.7848 23.898 97.5328 24.8173 97.0288 25.648C96.5248 26.4787 95.7968 27.1413 94.8448 27.636C93.8928 28.1213 92.7401 28.364 91.3868 28.364Z" fill="black"/>
</svg>
