<svg width="172" height="40" viewBox="0 0 172 40" fill="none" xmlns="http://www.w3.org/2000/svg">
<rect width="172" height="40" fill="#349705"/>
<path d="M13.1477 13.8636H15.7273L19.1818 22.2955H19.3182L22.7727 13.8636H25.3523V25.5H23.3295V17.5057H23.2216L20.0057 25.4659H18.4943L15.2784 17.4886H15.1705V25.5H13.1477V13.8636ZM30.0682 25.6761C29.5152 25.6761 29.017 25.5777 28.5739 25.3807C28.1345 25.1799 27.786 24.8845 27.5284 24.4943C27.2746 24.1042 27.1477 23.6231 27.1477 23.0511C27.1477 22.5587 27.2386 22.1515 27.4205 21.8295C27.6023 21.5076 27.8504 21.25 28.1648 21.0568C28.4792 20.8636 28.8333 20.7178 29.2273 20.6193C29.625 20.517 30.036 20.4432 30.4602 20.3977C30.9716 20.3447 31.3864 20.2973 31.7045 20.2557C32.0227 20.2102 32.2538 20.142 32.3977 20.0511C32.5455 19.9564 32.6193 19.8106 32.6193 19.6136V19.5795C32.6193 19.1515 32.4924 18.8201 32.2386 18.5852C31.9848 18.3504 31.6193 18.233 31.142 18.233C30.6383 18.233 30.2386 18.3428 29.9432 18.5625C29.6515 18.7822 29.4545 19.0417 29.3523 19.3409L27.4318 19.0682C27.5833 18.5379 27.8333 18.0947 28.1818 17.7386C28.5303 17.3788 28.9564 17.1098 29.4602 16.9318C29.964 16.75 30.5208 16.6591 31.1307 16.6591C31.5511 16.6591 31.9697 16.7083 32.3864 16.8068C32.803 16.9053 33.1837 17.0682 33.5284 17.2955C33.8731 17.5189 34.1496 17.8239 34.358 18.2102C34.5701 18.5966 34.6761 19.0795 34.6761 19.6591V25.5H32.6989V24.3011H32.6307C32.5057 24.5436 32.3295 24.7708 32.1023 24.983C31.8788 25.1913 31.5966 25.3598 31.2557 25.4886C30.9186 25.6136 30.5227 25.6761 30.0682 25.6761ZM30.6023 24.1648C31.0152 24.1648 31.3731 24.0833 31.6761 23.9205C31.9792 23.7538 32.2121 23.5341 32.375 23.2614C32.5417 22.9886 32.625 22.6913 32.625 22.3693V21.3409C32.5606 21.3939 32.4508 21.4432 32.2955 21.4886C32.1439 21.5341 31.9735 21.5739 31.7841 21.608C31.5947 21.642 31.4072 21.6723 31.2216 21.6989C31.036 21.7254 30.875 21.7481 30.7386 21.767C30.4318 21.8087 30.1572 21.8769 29.9148 21.9716C29.6723 22.0663 29.4811 22.1989 29.3409 22.3693C29.2008 22.536 29.1307 22.7519 29.1307 23.017C29.1307 23.3958 29.2689 23.6818 29.5455 23.875C29.822 24.0682 30.1742 24.1648 30.6023 24.1648ZM38.6193 22.7614L38.6136 20.2784H38.9432L42.0795 16.7727H44.483L40.625 21.0682H40.1989L38.6193 22.7614ZM36.7443 25.5V13.8636H38.8011V25.5H36.7443ZM42.2216 25.5L39.3807 21.5284L40.767 20.0795L44.6818 25.5H42.2216ZM49.358 25.6705C48.483 25.6705 47.7273 25.4886 47.0909 25.125C46.4583 24.7576 45.9716 24.2386 45.6307 23.5682C45.2898 22.8939 45.1193 22.1004 45.1193 21.1875C45.1193 20.2898 45.2898 19.5019 45.6307 18.8239C45.9754 18.142 46.4564 17.6117 47.0739 17.233C47.6913 16.8504 48.4167 16.6591 49.25 16.6591C49.7879 16.6591 50.2955 16.7462 50.7727 16.9205C51.2538 17.0909 51.678 17.3561 52.0455 17.7159C52.4167 18.0758 52.7083 18.5341 52.9205 19.0909C53.1326 19.6439 53.2386 20.303 53.2386 21.0682V21.6989H46.0852V20.3125H51.267C51.2633 19.9186 51.178 19.5682 51.0114 19.2614C50.8447 18.9508 50.6117 18.7064 50.3125 18.5284C50.017 18.3504 49.6723 18.2614 49.2784 18.2614C48.858 18.2614 48.4886 18.3636 48.1705 18.5682C47.8523 18.7689 47.6042 19.0341 47.4261 19.3636C47.2519 19.6894 47.1629 20.0473 47.1591 20.4375V21.6477C47.1591 22.1553 47.2519 22.5909 47.4375 22.9545C47.6231 23.3144 47.8826 23.5909 48.2159 23.7841C48.5492 23.9735 48.9394 24.0682 49.3864 24.0682C49.6856 24.0682 49.9564 24.0265 50.1989 23.9432C50.4413 23.8561 50.6515 23.7292 50.8295 23.5625C51.0076 23.3958 51.142 23.1894 51.233 22.9432L53.1534 23.1591C53.0322 23.6667 52.8011 24.1098 52.4602 24.4886C52.1231 24.8636 51.6913 25.1553 51.1648 25.3636C50.6383 25.5682 50.036 25.6705 49.358 25.6705ZM61.4588 25.6761C60.9058 25.6761 60.4077 25.5777 59.9645 25.3807C59.5251 25.1799 59.1766 24.8845 58.919 24.4943C58.6652 24.1042 58.5384 23.6231 58.5384 23.0511C58.5384 22.5587 58.6293 22.1515 58.8111 21.8295C58.9929 21.5076 59.241 21.25 59.5554 21.0568C59.8698 20.8636 60.224 20.7178 60.6179 20.6193C61.0156 20.517 61.4266 20.4432 61.8509 20.3977C62.3622 20.3447 62.777 20.2973 63.0952 20.2557C63.4134 20.2102 63.6444 20.142 63.7884 20.0511C63.9361 19.9564 64.0099 19.8106 64.0099 19.6136V19.5795C64.0099 19.1515 63.883 18.8201 63.6293 18.5852C63.3755 18.3504 63.0099 18.233 62.5327 18.233C62.0289 18.233 61.6293 18.3428 61.3338 18.5625C61.0421 18.7822 60.8452 19.0417 60.7429 19.3409L58.8224 19.0682C58.974 18.5379 59.224 18.0947 59.5724 17.7386C59.9209 17.3788 60.3471 17.1098 60.8509 16.9318C61.3546 16.75 61.9115 16.6591 62.5213 16.6591C62.9418 16.6591 63.3603 16.7083 63.777 16.8068C64.1937 16.9053 64.5743 17.0682 64.919 17.2955C65.2637 17.5189 65.5402 17.8239 65.7486 18.2102C65.9607 18.5966 66.0668 19.0795 66.0668 19.6591V25.5H64.0895V24.3011H64.0213C63.8963 24.5436 63.7202 24.7708 63.4929 24.983C63.2694 25.1913 62.9872 25.3598 62.6463 25.4886C62.3092 25.6136 61.9134 25.6761 61.4588 25.6761ZM61.9929 24.1648C62.4058 24.1648 62.7637 24.0833 63.0668 23.9205C63.3698 23.7538 63.6027 23.5341 63.7656 23.2614C63.9323 22.9886 64.0156 22.6913 64.0156 22.3693V21.3409C63.9512 21.3939 63.8414 21.4432 63.6861 21.4886C63.5346 21.5341 63.3641 21.5739 63.1747 21.608C62.9853 21.642 62.7978 21.6723 62.6122 21.6989C62.4266 21.7254 62.2656 21.7481 62.1293 21.767C61.8224 21.8087 61.5478 21.8769 61.3054 21.9716C61.063 22.0663 60.8717 22.1989 60.7315 22.3693C60.5914 22.536 60.5213 22.7519 60.5213 23.017C60.5213 23.3958 60.6596 23.6818 60.9361 23.875C61.2126 24.0682 61.5649 24.1648 61.9929 24.1648ZM72.1037 25.5V16.7727H74.098V18.2273H74.1889C74.348 17.7235 74.6207 17.3352 75.0071 17.0625C75.3973 16.786 75.8423 16.6477 76.3423 16.6477C76.456 16.6477 76.5829 16.6534 76.723 16.6648C76.867 16.6723 76.9863 16.6856 77.081 16.7045V18.5966C76.9938 18.5663 76.8556 18.5398 76.6662 18.517C76.4806 18.4905 76.3007 18.4773 76.1264 18.4773C75.7514 18.4773 75.4143 18.5587 75.1151 18.7216C74.8196 18.8807 74.5866 19.1023 74.4162 19.3864C74.2457 19.6705 74.1605 19.9981 74.1605 20.3693V25.5H72.1037ZM81.9517 25.6705C81.0767 25.6705 80.321 25.4886 79.6847 25.125C79.0521 24.7576 78.5653 24.2386 78.2244 23.5682C77.8835 22.8939 77.7131 22.1004 77.7131 21.1875C77.7131 20.2898 77.8835 19.5019 78.2244 18.8239C78.5691 18.142 79.0502 17.6117 79.6676 17.233C80.285 16.8504 81.0104 16.6591 81.8438 16.6591C82.3816 16.6591 82.8892 16.7462 83.3665 16.9205C83.8475 17.0909 84.2718 17.3561 84.6392 17.7159C85.0104 18.0758 85.3021 18.5341 85.5142 19.0909C85.7263 19.6439 85.8324 20.303 85.8324 21.0682V21.6989H78.679V20.3125H83.8608C83.857 19.9186 83.7718 19.5682 83.6051 19.2614C83.4384 18.9508 83.2055 18.7064 82.9062 18.5284C82.6108 18.3504 82.2661 18.2614 81.8722 18.2614C81.4517 18.2614 81.0824 18.3636 80.7642 18.5682C80.446 18.7689 80.1979 19.0341 80.0199 19.3636C79.8456 19.6894 79.7566 20.0473 79.7528 20.4375V21.6477C79.7528 22.1553 79.8456 22.5909 80.0312 22.9545C80.2169 23.3144 80.4763 23.5909 80.8097 23.7841C81.143 23.9735 81.5331 24.0682 81.9801 24.0682C82.2794 24.0682 82.5502 24.0265 82.7926 23.9432C83.035 23.8561 83.2453 23.7292 83.4233 23.5625C83.6013 23.3958 83.7358 23.1894 83.8267 22.9432L85.7472 23.1591C85.6259 23.6667 85.3949 24.1098 85.054 24.4886C84.7169 24.8636 84.285 25.1553 83.7585 25.3636C83.232 25.5682 82.6297 25.6705 81.9517 25.6705ZM94.4702 19.0795L92.5952 19.2841C92.5421 19.0947 92.4493 18.9167 92.3168 18.75C92.188 18.5833 92.0137 18.4489 91.794 18.3466C91.5743 18.2443 91.3054 18.1932 90.9872 18.1932C90.5592 18.1932 90.1993 18.286 89.9077 18.4716C89.6198 18.6572 89.4777 18.8977 89.4815 19.1932C89.4777 19.447 89.5705 19.6534 89.7599 19.8125C89.9531 19.9716 90.2713 20.1023 90.7145 20.2045L92.2031 20.5227C93.0289 20.7008 93.6425 20.983 94.044 21.3693C94.4493 21.7557 94.6539 22.2614 94.6577 22.8864C94.6539 23.4356 94.4929 23.9205 94.1747 24.3409C93.8603 24.7576 93.4228 25.0833 92.8622 25.3182C92.3016 25.553 91.6577 25.6705 90.9304 25.6705C89.8622 25.6705 89.0024 25.447 88.3509 25C87.6993 24.5492 87.3111 23.9223 87.1861 23.1193L89.1918 22.9261C89.2827 23.3201 89.4759 23.6174 89.7713 23.8182C90.0668 24.0189 90.4512 24.1193 90.9247 24.1193C91.4134 24.1193 91.8054 24.0189 92.1009 23.8182C92.4001 23.6174 92.5497 23.3693 92.5497 23.0739C92.5497 22.8239 92.4531 22.6174 92.2599 22.4545C92.0705 22.2917 91.7751 22.1667 91.3736 22.0795L89.8849 21.767C89.0478 21.5928 88.4285 21.2992 88.027 20.8864C87.6255 20.4697 87.4266 19.9432 87.4304 19.3068C87.4266 18.7689 87.5724 18.303 87.8679 17.9091C88.1671 17.5114 88.5819 17.2045 89.1122 16.9886C89.6463 16.7689 90.2618 16.6591 90.9588 16.6591C91.9815 16.6591 92.7865 16.8769 93.3736 17.3125C93.9645 17.7481 94.33 18.3371 94.4702 19.0795ZM100.217 25.6705C99.3423 25.6705 98.5866 25.4886 97.9503 25.125C97.3177 24.7576 96.831 24.2386 96.4901 23.5682C96.1491 22.8939 95.9787 22.1004 95.9787 21.1875C95.9787 20.2898 96.1491 19.5019 96.4901 18.8239C96.8348 18.142 97.3158 17.6117 97.9332 17.233C98.5507 16.8504 99.276 16.6591 100.109 16.6591C100.647 16.6591 101.155 16.7462 101.632 16.9205C102.113 17.0909 102.537 17.3561 102.905 17.7159C103.276 18.0758 103.568 18.5341 103.78 19.0909C103.992 19.6439 104.098 20.303 104.098 21.0682V21.6989H96.9446V20.3125H102.126C102.123 19.9186 102.037 19.5682 101.871 19.2614C101.704 18.9508 101.471 18.7064 101.172 18.5284C100.876 18.3504 100.532 18.2614 100.138 18.2614C99.7173 18.2614 99.348 18.3636 99.0298 18.5682C98.7116 18.7689 98.4635 19.0341 98.2855 19.3636C98.1113 19.6894 98.0223 20.0473 98.0185 20.4375V21.6477C98.0185 22.1553 98.1113 22.5909 98.2969 22.9545C98.4825 23.3144 98.742 23.5909 99.0753 23.7841C99.4086 23.9735 99.7988 24.0682 100.246 24.0682C100.545 24.0682 100.816 24.0265 101.058 23.9432C101.301 23.8561 101.511 23.7292 101.689 23.5625C101.867 23.3958 102.001 23.1894 102.092 22.9432L104.013 23.1591C103.892 23.6667 103.661 24.1098 103.32 24.4886C102.982 24.8636 102.551 25.1553 102.024 25.3636C101.498 25.5682 100.895 25.6705 100.217 25.6705ZM105.838 25.5V16.7727H107.832V18.2273H107.923C108.082 17.7235 108.355 17.3352 108.741 17.0625C109.132 16.786 109.577 16.6477 110.077 16.6477C110.19 16.6477 110.317 16.6534 110.457 16.6648C110.601 16.6723 110.721 16.6856 110.815 16.7045V18.5966C110.728 18.5663 110.59 18.5398 110.401 18.517C110.215 18.4905 110.035 18.4773 109.861 18.4773C109.486 18.4773 109.149 18.5587 108.849 18.7216C108.554 18.8807 108.321 19.1023 108.151 19.3864C107.98 19.6705 107.895 19.9981 107.895 20.3693V25.5H105.838ZM120.243 16.7727L117.135 25.5H114.862L111.754 16.7727H113.947L115.953 23.2557H116.044L118.055 16.7727H120.243ZM123.928 25.6761C123.375 25.6761 122.876 25.5777 122.433 25.3807C121.994 25.1799 121.645 24.8845 121.388 24.4943C121.134 24.1042 121.007 23.6231 121.007 23.0511C121.007 22.5587 121.098 22.1515 121.28 21.8295C121.462 21.5076 121.71 21.25 122.024 21.0568C122.339 20.8636 122.693 20.7178 123.087 20.6193C123.484 20.517 123.895 20.4432 124.32 20.3977C124.831 20.3447 125.246 20.2973 125.564 20.2557C125.882 20.2102 126.113 20.142 126.257 20.0511C126.405 19.9564 126.479 19.8106 126.479 19.6136V19.5795C126.479 19.1515 126.352 18.8201 126.098 18.5852C125.844 18.3504 125.479 18.233 125.001 18.233C124.498 18.233 124.098 18.3428 123.803 18.5625C123.511 18.7822 123.314 19.0417 123.212 19.3409L121.291 19.0682C121.443 18.5379 121.693 18.0947 122.041 17.7386C122.39 17.3788 122.816 17.1098 123.32 16.9318C123.823 16.75 124.38 16.6591 124.99 16.6591C125.411 16.6591 125.829 16.7083 126.246 16.8068C126.662 16.9053 127.043 17.0682 127.388 17.2955C127.732 17.5189 128.009 17.8239 128.217 18.2102C128.429 18.5966 128.536 19.0795 128.536 19.6591V25.5H126.558V24.3011H126.49C126.365 24.5436 126.189 24.7708 125.962 24.983C125.738 25.1913 125.456 25.3598 125.115 25.4886C124.778 25.6136 124.382 25.6761 123.928 25.6761ZM124.462 24.1648C124.875 24.1648 125.232 24.0833 125.536 23.9205C125.839 23.7538 126.071 23.5341 126.234 23.2614C126.401 22.9886 126.484 22.6913 126.484 22.3693V21.3409C126.42 21.3939 126.31 21.4432 126.155 21.4886C126.003 21.5341 125.833 21.5739 125.643 21.608C125.454 21.642 125.267 21.6723 125.081 21.6989C124.895 21.7254 124.734 21.7481 124.598 21.767C124.291 21.8087 124.017 21.8769 123.774 21.9716C123.532 22.0663 123.34 22.1989 123.2 22.3693C123.06 22.536 122.99 22.7519 122.99 23.017C122.99 23.3958 123.128 23.6818 123.405 23.875C123.681 24.0682 124.034 24.1648 124.462 24.1648ZM134.962 16.7727V18.3636H129.945V16.7727H134.962ZM131.183 14.6818H133.24V22.875C133.24 23.1515 133.282 23.3636 133.365 23.5114C133.452 23.6553 133.566 23.7538 133.706 23.8068C133.846 23.8598 134.001 23.8864 134.172 23.8864C134.301 23.8864 134.418 23.8769 134.524 23.858C134.634 23.839 134.717 23.822 134.774 23.8068L135.121 25.4148C135.011 25.4527 134.854 25.4943 134.649 25.5398C134.448 25.5852 134.202 25.6117 133.911 25.6193C133.395 25.6345 132.931 25.5568 132.518 25.3864C132.106 25.2121 131.778 24.9432 131.536 24.5795C131.297 24.2159 131.179 23.7614 131.183 23.2159V14.6818ZM136.682 25.5V16.7727H138.739V25.5H136.682ZM137.716 15.5341C137.39 15.5341 137.11 15.4261 136.875 15.2102C136.64 14.9905 136.523 14.7273 136.523 14.4205C136.523 14.1098 136.64 13.8466 136.875 13.6307C137.11 13.411 137.39 13.3011 137.716 13.3011C138.045 13.3011 138.326 13.411 138.557 13.6307C138.792 13.8466 138.909 14.1098 138.909 14.4205C138.909 14.7273 138.792 14.9905 138.557 15.2102C138.326 15.4261 138.045 15.5341 137.716 15.5341ZM144.661 25.6705C143.808 25.6705 143.07 25.483 142.445 25.108C141.82 24.733 141.335 24.2083 140.99 23.5341C140.649 22.8598 140.479 22.072 140.479 21.1705C140.479 20.2689 140.649 19.4792 140.99 18.8011C141.335 18.1231 141.82 17.5966 142.445 17.2216C143.07 16.8466 143.808 16.6591 144.661 16.6591C145.513 16.6591 146.251 16.8466 146.876 17.2216C147.501 17.5966 147.984 18.1231 148.325 18.8011C148.67 19.4792 148.842 20.2689 148.842 21.1705C148.842 22.072 148.67 22.8598 148.325 23.5341C147.984 24.2083 147.501 24.733 146.876 25.108C146.251 25.483 145.513 25.6705 144.661 25.6705ZM144.672 24.0227C145.134 24.0227 145.52 23.8958 145.831 23.642C146.142 23.3845 146.373 23.0398 146.524 22.608C146.679 22.1761 146.757 21.6951 146.757 21.1648C146.757 20.6307 146.679 20.1477 146.524 19.7159C146.373 19.2803 146.142 18.9337 145.831 18.6761C145.52 18.4186 145.134 18.2898 144.672 18.2898C144.198 18.2898 143.804 18.4186 143.49 18.6761C143.179 18.9337 142.946 19.2803 142.791 19.7159C142.64 20.1477 142.564 20.6307 142.564 21.1648C142.564 21.6951 142.64 22.1761 142.791 22.608C142.946 23.0398 143.179 23.3845 143.49 23.642C143.804 23.8958 144.198 24.0227 144.672 24.0227ZM152.645 20.3864V25.5H150.588V16.7727H152.554V18.2557H152.656C152.857 17.767 153.177 17.3788 153.616 17.0909C154.06 16.803 154.607 16.6591 155.259 16.6591C155.861 16.6591 156.385 16.7879 156.832 17.0455C157.283 17.303 157.632 17.6761 157.878 18.1648C158.128 18.6534 158.251 19.2462 158.247 19.9432V25.5H156.19V20.2614C156.19 19.678 156.039 19.2216 155.736 18.892C155.437 18.5625 155.022 18.3977 154.491 18.3977C154.132 18.3977 153.812 18.4773 153.531 18.6364C153.255 18.7917 153.037 19.017 152.878 19.3125C152.723 19.608 152.645 19.9659 152.645 20.3864Z" fill="white"/>
</svg>
