<svg width="200" height="20" viewBox="0 0 200 20" fill="none" xmlns="http://www.w3.org/2000/svg">
<line x1="10" y1="10" x2="42" y2="10" stroke="#349705" stroke-width="2"/>
<path d="M56.5572 8.68C56.5572 9.20267 56.4399 9.67733 56.2052 10.104C55.9759 10.5253 55.6479 10.8773 55.2212 11.16C54.7945 11.4373 54.2852 11.6293 53.6932 11.736C53.5279 11.7627 53.3679 11.792 53.2132 11.824C53.0639 11.8507 52.9119 11.8747 52.7572 11.896C52.6025 11.9173 52.4345 11.928 52.2532 11.928C51.8799 11.928 51.5385 11.904 51.2292 11.856C50.9252 11.8027 50.6505 11.7307 50.4052 11.64C50.1652 11.544 49.9492 11.4267 49.7572 11.288L49.8132 10.84C49.9785 10.9627 50.1625 11.0667 50.3652 11.152C50.5732 11.232 50.7919 11.2907 51.0212 11.328C51.2559 11.3653 51.5012 11.384 51.7572 11.384C52.4932 11.384 53.0745 11.1653 53.5012 10.728C53.9279 10.2853 54.1412 9.624 54.1412 8.744C54.1412 8.072 54.0079 7.47467 53.7412 6.952C53.4799 6.42933 53.1145 6.02133 52.6452 5.728C52.1759 5.42933 51.6345 5.28 51.0212 5.28H50.3172V15.024C50.3172 15.136 50.3439 15.224 50.3972 15.288C50.4505 15.3467 50.5359 15.392 50.6532 15.424L51.2452 15.528C51.3305 15.5547 51.3892 15.5867 51.4212 15.624C51.4532 15.6613 51.4692 15.712 51.4692 15.776C51.4692 15.9253 51.3705 16 51.1732 16H47.1172C47.0159 16 46.9412 15.9787 46.8932 15.936C46.8452 15.8933 46.8212 15.84 46.8212 15.776C46.8212 15.6533 46.8959 15.5707 47.0452 15.528L47.5892 15.424C47.7119 15.392 47.8025 15.3467 47.8612 15.288C47.9199 15.224 47.9492 15.136 47.9492 15.024V5.728C47.9492 5.632 47.9172 5.55733 47.8532 5.504C47.7945 5.44533 47.7065 5.40267 47.5892 5.376L47.0452 5.272C46.8959 5.22933 46.8212 5.14667 46.8212 5.024C46.8212 4.95467 46.8452 4.90133 46.8932 4.864C46.9412 4.82133 47.0159 4.8 47.1172 4.8H51.0612C52.2292 4.8 53.2212 4.96267 54.0372 5.288C54.8585 5.61333 55.4825 6.06667 55.9092 6.648C56.3412 7.22933 56.5572 7.90667 56.5572 8.68ZM52.0132 11.68L54.2852 11.424L56.4692 14.976C56.5705 15.1467 56.6772 15.2693 56.7892 15.344C56.9065 15.4187 57.0479 15.4773 57.2132 15.52C57.3199 15.552 57.3919 15.5867 57.4292 15.624C57.4719 15.6613 57.4932 15.712 57.4932 15.776C57.4932 15.84 57.4665 15.8933 57.4132 15.936C57.3652 15.9787 57.2905 16 57.1892 16H53.6532C53.4612 16 53.3652 15.9253 53.3652 15.776C53.3652 15.728 53.3785 15.6907 53.4052 15.664C53.4319 15.6373 53.4745 15.6107 53.5332 15.584L53.8212 15.52C53.9385 15.472 54.0079 15.4107 54.0292 15.336C54.0559 15.2613 54.0265 15.1493 53.9412 15L52.0132 11.68ZM61.0354 10.04H63.3874C63.7714 10.04 64.0461 9.96 64.2114 9.8C64.3821 9.64 64.4994 9.33867 64.5634 8.896C64.5848 8.80533 64.6141 8.74133 64.6514 8.704C64.6941 8.66667 64.7448 8.64533 64.8034 8.64C64.9368 8.63467 65.0221 8.712 65.0594 8.872L65.7714 11.424C65.7981 11.5147 65.7981 11.5867 65.7714 11.64C65.7501 11.688 65.7074 11.7253 65.6434 11.752C65.5794 11.768 65.5181 11.768 65.4594 11.752C65.4008 11.736 65.3501 11.696 65.3074 11.632C65.1154 11.3387 64.9394 11.1147 64.7794 10.96C64.6248 10.8 64.4568 10.6907 64.2754 10.632C64.0994 10.5733 63.8808 10.544 63.6194 10.544H61.0354V10.04ZM58.2274 5.024C58.2274 4.95467 58.2514 4.90133 58.2994 4.864C58.3474 4.82133 58.4221 4.8 58.5234 4.8H64.9554C65.1154 4.8 65.2514 4.77867 65.3634 4.736C65.4754 4.688 65.5768 4.64267 65.6674 4.6C65.7581 4.552 65.8461 4.528 65.9314 4.528C66.0274 4.528 66.0994 4.55733 66.1474 4.616C66.2008 4.66933 66.2461 4.77067 66.2834 4.92L66.9554 7.448C66.9821 7.53333 66.9821 7.60533 66.9554 7.664C66.9288 7.71733 66.8808 7.75733 66.8114 7.784C66.7314 7.80533 66.6594 7.80267 66.5954 7.776C66.5314 7.744 66.4754 7.68533 66.4274 7.6C66.1554 7.12 65.9074 6.73067 65.6834 6.432C65.4648 6.13333 65.2514 5.904 65.0434 5.744C64.8408 5.57867 64.6328 5.46667 64.4194 5.408C64.2061 5.344 63.9688 5.312 63.7074 5.312H61.7234V14.896C61.7234 15.0933 61.7794 15.2427 61.8914 15.344C62.0088 15.44 62.1768 15.488 62.3954 15.488H63.8754C64.2221 15.488 64.5368 15.4187 64.8194 15.28C65.1021 15.136 65.3928 14.8613 65.6914 14.456C65.9901 14.0453 66.3314 13.4453 66.7154 12.656C66.7581 12.576 66.8061 12.5227 66.8594 12.496C66.9181 12.464 66.9821 12.456 67.0514 12.472C67.1314 12.4827 67.1874 12.52 67.2194 12.584C67.2568 12.6427 67.2621 12.7227 67.2354 12.824L66.4754 15.864C66.4381 16.0027 66.3928 16.1013 66.3394 16.16C66.2861 16.224 66.2088 16.256 66.1074 16.256C66.0221 16.256 65.9341 16.2347 65.8434 16.192C65.7528 16.1493 65.6461 16.1067 65.5234 16.064C65.4061 16.0213 65.2594 16 65.0834 16H58.5234C58.4221 16 58.3474 15.9787 58.2994 15.936C58.2514 15.8933 58.2274 15.84 58.2274 15.776C58.2274 15.6533 58.3048 15.5707 58.4594 15.528L58.9954 15.424C59.1181 15.3973 59.2088 15.3573 59.2674 15.304C59.3261 15.2453 59.3554 15.168 59.3554 15.072V5.728C59.3554 5.632 59.3261 5.55733 59.2674 5.504C59.2088 5.44533 59.1181 5.40267 58.9954 5.376L58.4594 5.272C58.3048 5.22933 58.2274 5.14667 58.2274 5.024ZM72.7132 16.208C72.2492 16.208 71.8599 16.1467 71.5452 16.024C71.2305 15.9067 70.9772 15.7893 70.7852 15.672C70.5985 15.5493 70.4625 15.488 70.3772 15.488C70.3025 15.488 70.2279 15.5253 70.1532 15.6C70.0785 15.6747 70.0012 15.7627 69.9212 15.864C69.8465 15.96 69.7719 16.0453 69.6972 16.12C69.6225 16.1947 69.5452 16.232 69.4652 16.232C69.3905 16.232 69.3265 16.208 69.2732 16.16C69.2199 16.112 69.1825 16.0373 69.1612 15.936L68.5852 12.944C68.5745 12.8693 68.5825 12.8053 68.6092 12.752C68.6412 12.6933 68.6919 12.6533 68.7612 12.632C68.8359 12.6 68.9025 12.6 68.9612 12.632C69.0252 12.664 69.0785 12.7227 69.1212 12.808C69.4892 13.5493 69.8599 14.1307 70.2332 14.552C70.6119 14.968 70.9932 15.2613 71.3772 15.432C71.7665 15.6027 72.1559 15.688 72.5452 15.688C73.1052 15.688 73.5479 15.5413 73.8732 15.248C74.2039 14.9493 74.3692 14.5307 74.3692 13.992C74.3745 13.6507 74.3025 13.3413 74.1532 13.064C74.0039 12.7867 73.7345 12.5227 73.3452 12.272C72.9612 12.0213 72.4092 11.776 71.6892 11.536C70.8679 11.2533 70.2092 10.9387 69.7132 10.592C69.2172 10.24 68.8572 9.84 68.6332 9.392C68.4145 8.93867 68.3052 8.424 68.3052 7.848C68.3052 7.208 68.4625 6.64533 68.7772 6.16C69.0919 5.67467 69.5292 5.296 70.0892 5.024C70.6492 4.752 71.2945 4.616 72.0252 4.616C72.4945 4.616 72.8812 4.66667 73.1852 4.768C73.4892 4.86933 73.7345 4.97333 73.9212 5.08C74.1079 5.18667 74.2572 5.24 74.3692 5.24C74.4652 5.24 74.5612 5.18667 74.6572 5.08C74.7585 4.968 74.8599 4.85867 74.9612 4.752C75.0625 4.64 75.1665 4.584 75.2732 4.584C75.3479 4.584 75.4119 4.608 75.4652 4.656C75.5185 4.704 75.5612 4.792 75.5932 4.92L76.3932 7.912C76.4199 8.00267 76.4172 8.08267 76.3852 8.152C76.3585 8.216 76.3105 8.26133 76.2412 8.288C76.1665 8.31467 76.0972 8.312 76.0332 8.28C75.9745 8.248 75.9239 8.192 75.8812 8.112C75.4812 7.34933 75.0812 6.752 74.6812 6.32C74.2812 5.88267 73.8759 5.576 73.4652 5.4C73.0599 5.21867 72.6465 5.128 72.2252 5.128C71.6759 5.128 71.2305 5.296 70.8892 5.632C70.5532 5.96267 70.3852 6.408 70.3852 6.968C70.3852 7.31467 70.4572 7.632 70.6012 7.92C70.7452 8.208 71.0039 8.48267 71.3772 8.744C71.7505 9 72.2839 9.25333 72.9772 9.504C73.8252 9.81333 74.4972 10.1413 74.9932 10.488C75.4892 10.8347 75.8412 11.2213 76.0492 11.648C76.2625 12.0693 76.3692 12.5467 76.3692 13.08C76.3692 13.656 76.2252 14.1813 75.9372 14.656C75.6492 15.1307 75.2332 15.5093 74.6892 15.792C74.1452 16.0693 73.4865 16.208 72.7132 16.208ZM79.1758 4.8H85.4238C85.5838 4.8 85.7198 4.77867 85.8318 4.736C85.9438 4.69333 86.0425 4.65067 86.1278 4.608C86.2185 4.56533 86.3011 4.544 86.3758 4.544C86.4771 4.544 86.5545 4.57067 86.6078 4.624C86.6665 4.67733 86.7118 4.776 86.7438 4.92L87.2638 7.728C87.2905 7.82933 87.2878 7.912 87.2558 7.976C87.2238 8.03467 87.1678 8.072 87.0878 8.088C87.0131 8.104 86.9465 8.096 86.8878 8.064C86.8291 8.032 86.7811 7.97333 86.7438 7.888C86.4345 7.168 86.1598 6.62667 85.9198 6.264C85.6798 5.896 85.4451 5.648 85.2158 5.52C84.9918 5.392 84.7438 5.328 84.4718 5.328H83.5038V15.072C83.5038 15.168 83.5331 15.2453 83.5918 15.304C83.6558 15.3573 83.7465 15.3973 83.8638 15.424L84.3998 15.528C84.5545 15.5707 84.6318 15.6533 84.6318 15.776C84.6318 15.9253 84.5305 16 84.3278 16H80.3038C80.2025 16 80.1251 15.9787 80.0718 15.936C80.0238 15.8933 79.9998 15.84 79.9998 15.776C79.9998 15.6533 80.0771 15.5707 80.2318 15.528L80.7758 15.424C80.8931 15.3973 80.9811 15.3573 81.0398 15.304C81.0985 15.2453 81.1278 15.168 81.1278 15.072V5.328H80.1598C79.8985 5.328 79.6531 5.39733 79.4238 5.536C79.1998 5.66933 78.9651 5.92 78.7198 6.288C78.4798 6.656 78.2051 7.18933 77.8958 7.888C77.8531 7.97333 77.8025 8.032 77.7438 8.064C77.6851 8.096 77.6185 8.104 77.5438 8.088C77.4691 8.072 77.4158 8.03467 77.3838 7.976C77.3518 7.912 77.3465 7.82933 77.3678 7.728L77.8878 4.92C77.9198 4.776 77.9625 4.67733 78.0158 4.624C78.0745 4.57067 78.1545 4.544 78.2558 4.544C78.3305 4.544 78.4078 4.56533 78.4878 4.608C78.5731 4.65067 78.6691 4.69333 78.7758 4.736C78.8878 4.77867 79.0211 4.8 79.1758 4.8ZM89.4257 11.552H93.8577L93.8897 12.08H89.3777L89.4257 11.552ZM90.1377 15.776C90.1377 15.84 90.1137 15.8933 90.0657 15.936C90.0177 15.9787 89.943 16 89.8417 16H87.3137C87.2124 16 87.1377 15.9787 87.0897 15.936C87.0417 15.8933 87.0177 15.84 87.0177 15.776C87.0177 15.7227 87.0337 15.68 87.0657 15.648C87.0977 15.6107 87.1484 15.576 87.2177 15.544L87.4977 15.44C87.663 15.3707 87.807 15.2587 87.9297 15.104C88.0577 14.9493 88.1777 14.696 88.2897 14.344L90.8577 6.08C90.927 5.856 90.9377 5.688 90.8897 5.576C90.847 5.45867 90.7377 5.368 90.5617 5.304C90.455 5.256 90.3777 5.21333 90.3297 5.176C90.2817 5.13333 90.2577 5.08267 90.2577 5.024C90.2577 4.94933 90.2817 4.89333 90.3297 4.856C90.383 4.81867 90.4604 4.8 90.5617 4.8H94.1137C94.215 4.8 94.2897 4.81867 94.3377 4.856C94.391 4.89333 94.4177 4.94933 94.4177 5.024C94.4177 5.08267 94.3937 5.13333 94.3457 5.176C94.303 5.21867 94.231 5.25867 94.1297 5.296C93.991 5.328 93.9084 5.37867 93.8817 5.448C93.855 5.512 93.8684 5.624 93.9217 5.784L96.8657 14.856C96.9297 15.0533 97.007 15.2027 97.0977 15.304C97.1884 15.4 97.311 15.4667 97.4657 15.504C97.567 15.5413 97.6337 15.5813 97.6657 15.624C97.703 15.6613 97.7217 15.712 97.7217 15.776C97.7217 15.84 97.695 15.8933 97.6417 15.936C97.5937 15.9787 97.519 16 97.4177 16H93.8897C93.7884 16 93.711 15.9787 93.6577 15.936C93.6097 15.8933 93.5857 15.84 93.5857 15.776C93.5857 15.7173 93.6044 15.672 93.6417 15.64C93.679 15.6027 93.7377 15.5707 93.8177 15.544L94.2417 15.464C94.375 15.4213 94.447 15.36 94.4577 15.28C94.4737 15.1947 94.4524 15.064 94.3937 14.888L91.4497 5.704L91.6817 5.432L88.9377 14.288C88.8684 14.5067 88.847 14.6907 88.8737 14.84C88.9004 14.9893 88.9724 15.112 89.0897 15.208C89.207 15.304 89.367 15.3893 89.5697 15.464L89.9137 15.544C89.9884 15.5707 90.0444 15.6027 90.0817 15.64C90.119 15.672 90.1377 15.7173 90.1377 15.776ZM107.14 11.184L106.852 6.312C106.836 6.06133 106.769 5.86133 106.652 5.712C106.54 5.56267 106.356 5.456 106.1 5.392L105.636 5.288C105.529 5.26133 105.454 5.22933 105.412 5.192C105.374 5.14933 105.356 5.09333 105.356 5.024C105.356 4.96 105.38 4.90667 105.428 4.864C105.481 4.82133 105.553 4.8 105.644 4.8H108.564C108.66 4.8 108.732 4.82133 108.78 4.864C108.828 4.90667 108.852 4.96 108.852 5.024C108.852 5.09333 108.828 5.14933 108.78 5.192C108.737 5.22933 108.665 5.26133 108.564 5.288L108.148 5.392C107.886 5.46133 107.697 5.57867 107.58 5.744C107.462 5.904 107.412 6.10133 107.428 6.336L107.724 11.144C107.745 11.4267 107.764 11.704 107.78 11.976C107.796 12.2427 107.804 12.52 107.804 12.808C107.814 13.4587 107.678 14.0427 107.396 14.56C107.118 15.0773 106.684 15.488 106.092 15.792C105.5 16.0907 104.737 16.24 103.804 16.24C102.801 16.24 101.966 16.1013 101.3 15.824C100.638 15.5413 100.142 15.1493 99.8116 14.648C99.4862 14.1413 99.3262 13.5573 99.3316 12.896C99.3316 12.7573 99.3369 12.5813 99.3476 12.368C99.3582 12.1493 99.3716 11.9147 99.3876 11.664C99.4036 11.4133 99.4196 11.1653 99.4356 10.92L99.7396 5.752C99.7502 5.64 99.7209 5.55733 99.6516 5.504C99.5876 5.44533 99.4782 5.4 99.3236 5.368L98.8116 5.288C98.6196 5.24533 98.5236 5.15733 98.5236 5.024C98.5236 4.96 98.5476 4.90667 98.5956 4.864C98.6489 4.82133 98.7236 4.8 98.8196 4.8H103.028C103.118 4.8 103.188 4.82133 103.236 4.864C103.289 4.90667 103.316 4.96 103.316 5.024C103.316 5.09333 103.294 5.14933 103.252 5.192C103.209 5.22933 103.134 5.25867 103.028 5.28L102.5 5.368C102.366 5.39467 102.268 5.43733 102.204 5.496C102.145 5.54933 102.11 5.63467 102.1 5.752L101.804 10.888C101.777 11.2773 101.761 11.632 101.756 11.952C101.75 12.272 101.745 12.5493 101.74 12.784C101.734 13.7653 101.961 14.488 102.42 14.952C102.878 15.4107 103.508 15.64 104.308 15.64C104.905 15.64 105.42 15.528 105.852 15.304C106.289 15.0747 106.625 14.752 106.86 14.336C107.1 13.9147 107.217 13.416 107.212 12.84C107.206 12.4773 107.196 12.168 107.18 11.912C107.169 11.6507 107.156 11.408 107.14 11.184ZM119.667 8.68C119.667 9.20267 119.549 9.67733 119.315 10.104C119.085 10.5253 118.757 10.8773 118.331 11.16C117.904 11.4373 117.395 11.6293 116.803 11.736C116.637 11.7627 116.477 11.792 116.323 11.824C116.173 11.8507 116.021 11.8747 115.867 11.896C115.712 11.9173 115.544 11.928 115.363 11.928C114.989 11.928 114.648 11.904 114.339 11.856C114.035 11.8027 113.76 11.7307 113.515 11.64C113.275 11.544 113.059 11.4267 112.867 11.288L112.923 10.84C113.088 10.9627 113.272 11.0667 113.475 11.152C113.683 11.232 113.901 11.2907 114.131 11.328C114.365 11.3653 114.611 11.384 114.867 11.384C115.603 11.384 116.184 11.1653 116.611 10.728C117.037 10.2853 117.251 9.624 117.251 8.744C117.251 8.072 117.117 7.47467 116.851 6.952C116.589 6.42933 116.224 6.02133 115.755 5.728C115.285 5.42933 114.744 5.28 114.131 5.28H113.427V15.024C113.427 15.136 113.453 15.224 113.507 15.288C113.56 15.3467 113.645 15.392 113.763 15.424L114.355 15.528C114.44 15.5547 114.499 15.5867 114.531 15.624C114.563 15.6613 114.579 15.712 114.579 15.776C114.579 15.9253 114.48 16 114.283 16H110.227C110.125 16 110.051 15.9787 110.003 15.936C109.955 15.8933 109.931 15.84 109.931 15.776C109.931 15.6533 110.005 15.5707 110.155 15.528L110.699 15.424C110.821 15.392 110.912 15.3467 110.971 15.288C111.029 15.224 111.059 15.136 111.059 15.024V5.728C111.059 5.632 111.027 5.55733 110.963 5.504C110.904 5.44533 110.816 5.40267 110.699 5.376L110.155 5.272C110.005 5.22933 109.931 5.14667 109.931 5.024C109.931 4.95467 109.955 4.90133 110.003 4.864C110.051 4.82133 110.125 4.8 110.227 4.8H114.171C115.339 4.8 116.331 4.96267 117.147 5.288C117.968 5.61333 118.592 6.06667 119.019 6.648C119.451 7.22933 119.667 7.90667 119.667 8.68ZM115.123 11.68L117.395 11.424L119.579 14.976C119.68 15.1467 119.787 15.2693 119.899 15.344C120.016 15.4187 120.157 15.4773 120.323 15.52C120.429 15.552 120.501 15.5867 120.539 15.624C120.581 15.6613 120.603 15.712 120.603 15.776C120.603 15.84 120.576 15.8933 120.523 15.936C120.475 15.9787 120.4 16 120.299 16H116.763C116.571 16 116.475 15.9253 116.475 15.776C116.475 15.728 116.488 15.6907 116.515 15.664C116.541 15.6373 116.584 15.6107 116.643 15.584L116.931 15.52C117.048 15.472 117.117 15.4107 117.139 15.336C117.165 15.2613 117.136 15.1493 117.051 15L115.123 11.68ZM123.144 11.552H127.576L127.608 12.08H123.096L123.144 11.552ZM123.856 15.776C123.856 15.84 123.832 15.8933 123.784 15.936C123.736 15.9787 123.662 16 123.56 16H121.032C120.931 16 120.856 15.9787 120.808 15.936C120.76 15.8933 120.736 15.84 120.736 15.776C120.736 15.7227 120.752 15.68 120.784 15.648C120.816 15.6107 120.867 15.576 120.936 15.544L121.216 15.44C121.382 15.3707 121.526 15.2587 121.648 15.104C121.776 14.9493 121.896 14.696 122.008 14.344L124.576 6.08C124.646 5.856 124.656 5.688 124.608 5.576C124.566 5.45867 124.456 5.368 124.28 5.304C124.174 5.256 124.096 5.21333 124.048 5.176C124 5.13333 123.976 5.08267 123.976 5.024C123.976 4.94933 124 4.89333 124.048 4.856C124.102 4.81867 124.179 4.8 124.28 4.8H127.832C127.934 4.8 128.008 4.81867 128.056 4.856C128.11 4.89333 128.136 4.94933 128.136 5.024C128.136 5.08267 128.112 5.13333 128.064 5.176C128.022 5.21867 127.95 5.25867 127.848 5.296C127.71 5.328 127.627 5.37867 127.6 5.448C127.574 5.512 127.587 5.624 127.64 5.784L130.584 14.856C130.648 15.0533 130.726 15.2027 130.816 15.304C130.907 15.4 131.03 15.4667 131.184 15.504C131.286 15.5413 131.352 15.5813 131.384 15.624C131.422 15.6613 131.44 15.712 131.44 15.776C131.44 15.84 131.414 15.8933 131.36 15.936C131.312 15.9787 131.238 16 131.136 16H127.608C127.507 16 127.43 15.9787 127.376 15.936C127.328 15.8933 127.304 15.84 127.304 15.776C127.304 15.7173 127.323 15.672 127.36 15.64C127.398 15.6027 127.456 15.5707 127.536 15.544L127.96 15.464C128.094 15.4213 128.166 15.36 128.176 15.28C128.192 15.1947 128.171 15.064 128.112 14.888L125.168 5.704L125.4 5.432L122.656 14.288C122.587 14.5067 122.566 14.6907 122.592 14.84C122.619 14.9893 122.691 15.112 122.808 15.208C122.926 15.304 123.086 15.3893 123.288 15.464L123.632 15.544C123.707 15.5707 123.763 15.6027 123.8 15.64C123.838 15.672 123.856 15.7173 123.856 15.776ZM135.561 15.776C135.561 15.84 135.537 15.8933 135.489 15.936C135.441 15.9787 135.367 16 135.265 16H132.417C132.316 16 132.239 15.9787 132.185 15.936C132.137 15.8933 132.113 15.84 132.113 15.776C132.113 15.664 132.191 15.5787 132.345 15.52L132.769 15.4C133.009 15.3147 133.191 15.2053 133.313 15.072C133.436 14.9333 133.497 14.728 133.497 14.456V6.968C133.497 6.84 133.484 6.73867 133.457 6.664C133.431 6.58933 133.361 6.48267 133.249 6.344L132.545 5.328C132.492 5.24267 132.449 5.176 132.417 5.128C132.391 5.08 132.377 5.03467 132.377 4.992C132.377 4.928 132.399 4.88 132.441 4.848C132.489 4.816 132.553 4.8 132.633 4.8H134.737C134.839 4.8 134.921 4.82133 134.985 4.864C135.055 4.90667 135.129 4.984 135.209 5.096L141.193 13.92L140.937 14.536V6.344C140.937 6.072 140.879 5.86933 140.761 5.736C140.644 5.59733 140.46 5.48533 140.209 5.4L139.673 5.28C139.519 5.216 139.441 5.13067 139.441 5.024C139.441 4.95467 139.465 4.90133 139.513 4.864C139.567 4.82133 139.641 4.8 139.737 4.8H142.585C142.687 4.8 142.761 4.82133 142.809 4.864C142.863 4.90133 142.889 4.95467 142.889 5.024C142.889 5.136 142.812 5.22133 142.657 5.28L142.233 5.4C141.993 5.48 141.812 5.58933 141.689 5.728C141.567 5.86133 141.505 6.06667 141.505 6.344V14.04C141.505 14.1627 141.519 14.2693 141.545 14.36C141.572 14.4453 141.612 14.528 141.665 14.608L142.193 15.376C142.273 15.488 142.324 15.5733 142.345 15.632C142.367 15.6907 142.377 15.7413 142.377 15.784C142.377 15.848 142.353 15.9013 142.305 15.944C142.263 15.9813 142.196 16 142.105 16H139.897C139.727 16 139.641 15.9253 139.641 15.776C139.641 15.7173 139.628 15.6587 139.601 15.6C139.58 15.536 139.521 15.44 139.425 15.312L133.497 6.608L134.065 6.32V14.456C134.065 14.7227 134.124 14.9253 134.241 15.064C134.364 15.2027 134.548 15.3147 134.793 15.4L135.329 15.52C135.484 15.5787 135.561 15.664 135.561 15.776ZM145.441 4.8H151.689C151.849 4.8 151.985 4.77867 152.097 4.736C152.209 4.69333 152.308 4.65067 152.393 4.608C152.484 4.56533 152.567 4.544 152.641 4.544C152.743 4.544 152.82 4.57067 152.873 4.624C152.932 4.67733 152.977 4.776 153.009 4.92L153.529 7.728C153.556 7.82933 153.553 7.912 153.521 7.976C153.489 8.03467 153.433 8.072 153.353 8.088C153.279 8.104 153.212 8.096 153.153 8.064C153.095 8.032 153.047 7.97333 153.009 7.888C152.7 7.168 152.425 6.62667 152.185 6.264C151.945 5.896 151.711 5.648 151.481 5.52C151.257 5.392 151.009 5.328 150.737 5.328H149.769V15.072C149.769 15.168 149.799 15.2453 149.857 15.304C149.921 15.3573 150.012 15.3973 150.129 15.424L150.665 15.528C150.82 15.5707 150.897 15.6533 150.897 15.776C150.897 15.9253 150.796 16 150.593 16H146.569C146.468 16 146.391 15.9787 146.337 15.936C146.289 15.8933 146.265 15.84 146.265 15.776C146.265 15.6533 146.343 15.5707 146.497 15.528L147.041 15.424C147.159 15.3973 147.247 15.3573 147.305 15.304C147.364 15.2453 147.393 15.168 147.393 15.072V5.328H146.425C146.164 5.328 145.919 5.39733 145.689 5.536C145.465 5.66933 145.231 5.92 144.985 6.288C144.745 6.656 144.471 7.18933 144.161 7.888C144.119 7.97333 144.068 8.032 144.009 8.064C143.951 8.096 143.884 8.104 143.809 8.088C143.735 8.072 143.681 8.03467 143.649 7.976C143.617 7.912 143.612 7.82933 143.633 7.728L144.153 4.92C144.185 4.776 144.228 4.67733 144.281 4.624C144.34 4.57067 144.42 4.544 144.521 4.544C144.596 4.544 144.673 4.56533 144.753 4.608C144.839 4.65067 144.935 4.69333 145.041 4.736C145.153 4.77867 145.287 4.8 145.441 4.8Z" fill="#349705"/>
<line x1="158" y1="10" x2="190" y2="10" stroke="#349705" stroke-width="2"/>
</svg>
