<svg width="133" height="20" viewBox="0 0 133 20" fill="none" xmlns="http://www.w3.org/2000/svg">
<path d="M9.48754 7.595C9.48754 8.05233 9.38487 8.46767 9.17954 8.841C8.97887 9.20967 8.69187 9.51767 8.31854 9.765C7.94521 10.0077 7.49954 10.1757 6.98154 10.269C6.83687 10.2923 6.69687 10.318 6.56154 10.346C6.43087 10.3693 6.29787 10.3903 6.16254 10.409C6.02721 10.4277 5.88021 10.437 5.72154 10.437C5.39487 10.437 5.09621 10.416 4.82554 10.374C4.55954 10.3273 4.31921 10.2643 4.10454 10.185C3.89454 10.101 3.70554 9.99833 3.53754 9.877L3.58654 9.485C3.73121 9.59233 3.89221 9.68333 4.06954 9.758C4.25154 9.828 4.44287 9.87933 4.64354 9.912C4.84887 9.94467 5.06354 9.961 5.28754 9.961C5.93154 9.961 6.44021 9.76967 6.81354 9.387C7.18687 8.99967 7.37354 8.421 7.37354 7.651C7.37354 7.063 7.25687 6.54033 7.02354 6.083C6.79487 5.62567 6.47521 5.26867 6.06454 5.012C5.65387 4.75067 5.18021 4.62 4.64354 4.62H4.02754V13.146C4.02754 13.244 4.05087 13.321 4.09754 13.377C4.14421 13.4283 4.21887 13.468 4.32154 13.496L4.83954 13.587C4.91421 13.6103 4.96554 13.6383 4.99354 13.671C5.02154 13.7037 5.03554 13.748 5.03554 13.804C5.03554 13.9347 4.94921 14 4.77654 14H1.22754C1.13887 14 1.07354 13.9813 1.03154 13.944C0.989539 13.9067 0.968539 13.86 0.968539 13.804C0.968539 13.6967 1.03387 13.6243 1.16454 13.587L1.64054 13.496C1.74787 13.468 1.82721 13.4283 1.87854 13.377C1.92987 13.321 1.95554 13.244 1.95554 13.146V5.012C1.95554 4.928 1.92754 4.86267 1.87154 4.816C1.82021 4.76467 1.74321 4.72733 1.64054 4.704L1.16454 4.613C1.03387 4.57567 0.968539 4.50333 0.968539 4.396C0.968539 4.33533 0.989539 4.28867 1.03154 4.256C1.07354 4.21867 1.13887 4.2 1.22754 4.2H4.67854C5.70054 4.2 6.56854 4.34233 7.28254 4.627C8.00121 4.91167 8.54721 5.30833 8.92054 5.817C9.29854 6.32567 9.48754 6.91833 9.48754 7.595ZM5.51154 10.22L7.49954 9.996L9.41054 13.104C9.49921 13.2533 9.59254 13.3607 9.69054 13.426C9.79321 13.4913 9.91687 13.5427 10.0615 13.58C10.1549 13.608 10.2179 13.6383 10.2505 13.671C10.2879 13.7037 10.3065 13.748 10.3065 13.804C10.3065 13.86 10.2832 13.9067 10.2365 13.944C10.1945 13.9813 10.1292 14 10.0405 14H6.94654C6.77854 14 6.69454 13.9347 6.69454 13.804C6.69454 13.762 6.70621 13.7293 6.72954 13.706C6.75287 13.6827 6.79021 13.6593 6.84154 13.636L7.09354 13.58C7.19621 13.538 7.25687 13.4843 7.27554 13.419C7.29887 13.3537 7.27321 13.2557 7.19854 13.125L5.51154 10.22ZM13.406 8.785H15.464C15.8 8.785 16.0403 8.715 16.185 8.575C16.3343 8.435 16.437 8.17133 16.493 7.784C16.5117 7.70467 16.5373 7.64867 16.57 7.616C16.6073 7.58333 16.6517 7.56467 16.703 7.56C16.8197 7.55533 16.8943 7.623 16.927 7.763L17.55 9.996C17.5733 10.0753 17.5733 10.1383 17.55 10.185C17.5313 10.227 17.494 10.2597 17.438 10.283C17.382 10.297 17.3283 10.297 17.277 10.283C17.2257 10.269 17.1813 10.234 17.144 10.178C16.976 9.92133 16.822 9.72533 16.682 9.59C16.5467 9.45 16.3997 9.35433 16.241 9.303C16.087 9.25167 15.8957 9.226 15.667 9.226H13.406V8.785ZM10.949 4.396C10.949 4.33533 10.97 4.28867 11.012 4.256C11.054 4.21867 11.1193 4.2 11.208 4.2H16.836C16.976 4.2 17.095 4.18133 17.193 4.144C17.291 4.102 17.3797 4.06233 17.459 4.025C17.5383 3.983 17.6153 3.962 17.69 3.962C17.774 3.962 17.837 3.98767 17.879 4.039C17.9257 4.08567 17.9653 4.17433 17.998 4.305L18.586 6.517C18.6093 6.59167 18.6093 6.65467 18.586 6.706C18.5627 6.75267 18.5207 6.78767 18.46 6.811C18.39 6.82967 18.327 6.82733 18.271 6.804C18.215 6.776 18.166 6.72467 18.124 6.65C17.886 6.23 17.669 5.88933 17.473 5.628C17.2817 5.36667 17.095 5.166 16.913 5.026C16.7357 4.88133 16.5537 4.78333 16.367 4.732C16.1803 4.676 15.9727 4.648 15.744 4.648H14.008V13.034C14.008 13.2067 14.057 13.3373 14.155 13.426C14.2577 13.51 14.4047 13.552 14.596 13.552H15.891C16.1943 13.552 16.4697 13.4913 16.717 13.37C16.9643 13.244 17.2187 13.0037 17.48 12.649C17.7413 12.2897 18.04 11.7647 18.376 11.074C18.4133 11.004 18.4553 10.9573 18.502 10.934C18.5533 10.906 18.6093 10.899 18.67 10.913C18.74 10.9223 18.789 10.955 18.817 11.011C18.8497 11.0623 18.8543 11.1323 18.831 11.221L18.166 13.881C18.1333 14.0023 18.0937 14.0887 18.047 14.14C18.0003 14.196 17.9327 14.224 17.844 14.224C17.7693 14.224 17.6923 14.2053 17.613 14.168C17.5337 14.1307 17.4403 14.0933 17.333 14.056C17.2303 14.0187 17.102 14 16.948 14H11.208C11.1193 14 11.054 13.9813 11.012 13.944C10.97 13.9067 10.949 13.86 10.949 13.804C10.949 13.6967 11.0167 13.6243 11.152 13.587L11.621 13.496C11.7283 13.4727 11.8077 13.4377 11.859 13.391C11.9103 13.3397 11.936 13.272 11.936 13.188V5.012C11.936 4.928 11.9103 4.86267 11.859 4.816C11.8077 4.76467 11.7283 4.72733 11.621 4.704L11.152 4.613C11.0167 4.57567 10.949 4.50333 10.949 4.396ZM23.624 14.182C23.218 14.182 22.8774 14.1283 22.602 14.021C22.3267 13.9183 22.105 13.8157 21.937 13.713C21.7737 13.6057 21.6547 13.552 21.58 13.552C21.5147 13.552 21.4494 13.5847 21.384 13.65C21.3187 13.7153 21.251 13.7923 21.181 13.881C21.1157 13.965 21.0504 14.0397 20.985 14.105C20.9197 14.1703 20.852 14.203 20.782 14.203C20.7167 14.203 20.6607 14.182 20.614 14.14C20.5674 14.098 20.5347 14.0327 20.516 13.944L20.012 11.326C20.0027 11.2607 20.0097 11.2047 20.033 11.158C20.061 11.1067 20.1054 11.0717 20.166 11.053C20.2314 11.025 20.2897 11.025 20.341 11.053C20.397 11.081 20.4437 11.1323 20.481 11.207C20.803 11.8557 21.1274 12.3643 21.454 12.733C21.7854 13.097 22.119 13.3537 22.455 13.503C22.7957 13.6523 23.1364 13.727 23.477 13.727C23.967 13.727 24.3544 13.5987 24.639 13.342C24.9284 13.0807 25.073 12.7143 25.073 12.243C25.0777 11.9443 25.0147 11.6737 24.884 11.431C24.7534 11.1883 24.5177 10.9573 24.177 10.738C23.841 10.5187 23.358 10.304 22.728 10.094C22.0094 9.84667 21.433 9.57133 20.999 9.268C20.565 8.96 20.25 8.61 20.054 8.218C19.8627 7.82133 19.767 7.371 19.767 6.867C19.767 6.307 19.9047 5.81467 20.18 5.39C20.4554 4.96533 20.838 4.634 21.328 4.396C21.818 4.158 22.3827 4.039 23.022 4.039C23.4327 4.039 23.771 4.08333 24.037 4.172C24.303 4.26067 24.5177 4.35167 24.681 4.445C24.8444 4.53833 24.975 4.585 25.073 4.585C25.157 4.585 25.241 4.53833 25.325 4.445C25.4137 4.347 25.5024 4.25133 25.591 4.158C25.6797 4.06 25.7707 4.011 25.864 4.011C25.9294 4.011 25.9854 4.032 26.032 4.074C26.0787 4.116 26.116 4.193 26.144 4.305L26.844 6.923C26.8674 7.00233 26.865 7.07233 26.837 7.133C26.8137 7.189 26.7717 7.22867 26.711 7.252C26.6457 7.27533 26.585 7.273 26.529 7.245C26.4777 7.217 26.4334 7.168 26.396 7.098C26.046 6.43067 25.696 5.908 25.346 5.53C24.996 5.14733 24.6414 4.879 24.282 4.725C23.9274 4.56633 23.5657 4.487 23.197 4.487C22.7164 4.487 22.3267 4.634 22.028 4.928C21.734 5.21733 21.587 5.607 21.587 6.097C21.587 6.40033 21.65 6.678 21.776 6.93C21.902 7.182 22.1284 7.42233 22.455 7.651C22.7817 7.875 23.2484 8.09667 23.855 8.316C24.597 8.58667 25.185 8.87367 25.619 9.177C26.053 9.48033 26.361 9.81867 26.543 10.192C26.7297 10.5607 26.823 10.9783 26.823 11.445C26.823 11.949 26.697 12.4087 26.445 12.824C26.193 13.2393 25.829 13.5707 25.353 13.818C24.877 14.0607 24.3007 14.182 23.624 14.182ZM29.2788 4.2H34.7458C34.8858 4.2 35.0048 4.18133 35.1028 4.144C35.2008 4.10667 35.2872 4.06933 35.3618 4.032C35.4412 3.99467 35.5135 3.976 35.5788 3.976C35.6675 3.976 35.7352 3.99933 35.7818 4.046C35.8332 4.09267 35.8728 4.179 35.9008 4.305L36.3558 6.762C36.3792 6.85067 36.3768 6.923 36.3488 6.979C36.3208 7.03033 36.2718 7.063 36.2018 7.077C36.1365 7.091 36.0782 7.084 36.0268 7.056C35.9755 7.028 35.9335 6.97667 35.9008 6.902C35.6302 6.272 35.3898 5.79833 35.1798 5.481C34.9698 5.159 34.7645 4.942 34.5638 4.83C34.3678 4.718 34.1508 4.662 33.9128 4.662H33.0658V13.188C33.0658 13.272 33.0915 13.3397 33.1428 13.391C33.1988 13.4377 33.2782 13.4727 33.3808 13.496L33.8498 13.587C33.9852 13.6243 34.0528 13.6967 34.0528 13.804C34.0528 13.9347 33.9642 14 33.7868 14H30.2658C30.1772 14 30.1095 13.9813 30.0628 13.944C30.0208 13.9067 29.9998 13.86 29.9998 13.804C29.9998 13.6967 30.0675 13.6243 30.2028 13.587L30.6788 13.496C30.7815 13.4727 30.8585 13.4377 30.9098 13.391C30.9612 13.3397 30.9868 13.272 30.9868 13.188V4.662H30.1398C29.9112 4.662 29.6965 4.72267 29.4958 4.844C29.2998 4.96067 29.0945 5.18 28.8798 5.502C28.6698 5.824 28.4295 6.29067 28.1588 6.902C28.1215 6.97667 28.0772 7.028 28.0258 7.056C27.9745 7.084 27.9162 7.091 27.8508 7.077C27.7855 7.063 27.7388 7.03033 27.7108 6.979C27.6828 6.923 27.6782 6.85067 27.6968 6.762L28.1518 4.305C28.1798 4.179 28.2172 4.09267 28.2638 4.046C28.3152 3.99933 28.3852 3.976 28.4738 3.976C28.5392 3.976 28.6068 3.99467 28.6768 4.032C28.7515 4.06933 28.8355 4.10667 28.9288 4.144C29.0268 4.18133 29.1435 4.2 29.2788 4.2ZM38.2475 10.108H42.1255L42.1535 10.57H38.2055L38.2475 10.108ZM38.8705 13.804C38.8705 13.86 38.8495 13.9067 38.8075 13.944C38.7655 13.9813 38.7001 14 38.6115 14H36.3995C36.3108 14 36.2455 13.9813 36.2035 13.944C36.1615 13.9067 36.1405 13.86 36.1405 13.804C36.1405 13.7573 36.1545 13.72 36.1825 13.692C36.2105 13.6593 36.2548 13.629 36.3155 13.601L36.5605 13.51C36.7051 13.4493 36.8311 13.3513 36.9385 13.216C37.0505 13.0807 37.1555 12.859 37.2535 12.551L39.5005 5.32C39.5611 5.124 39.5705 4.977 39.5285 4.879C39.4911 4.77633 39.3955 4.697 39.2415 4.641C39.1481 4.599 39.0805 4.56167 39.0385 4.529C38.9965 4.49167 38.9755 4.44733 38.9755 4.396C38.9755 4.33067 38.9965 4.28167 39.0385 4.249C39.0851 4.21633 39.1528 4.2 39.2415 4.2H42.3495C42.4381 4.2 42.5035 4.21633 42.5455 4.249C42.5921 4.28167 42.6155 4.33067 42.6155 4.396C42.6155 4.44733 42.5945 4.49167 42.5525 4.529C42.5151 4.56633 42.4521 4.60133 42.3635 4.634C42.2421 4.662 42.1698 4.70633 42.1465 4.767C42.1231 4.823 42.1348 4.921 42.1815 5.061L44.7575 12.999C44.8135 13.1717 44.8811 13.3023 44.9605 13.391C45.0398 13.475 45.1471 13.5333 45.2825 13.566C45.3711 13.5987 45.4295 13.6337 45.4575 13.671C45.4901 13.7037 45.5065 13.748 45.5065 13.804C45.5065 13.86 45.4831 13.9067 45.4365 13.944C45.3945 13.9813 45.3291 14 45.2405 14H42.1535C42.0648 14 41.9971 13.9813 41.9505 13.944C41.9085 13.9067 41.8875 13.86 41.8875 13.804C41.8875 13.7527 41.9038 13.713 41.9365 13.685C41.9691 13.6523 42.0205 13.6243 42.0905 13.601L42.4615 13.531C42.5781 13.4937 42.6411 13.44 42.6505 13.37C42.6645 13.2953 42.6458 13.181 42.5945 13.027L40.0185 4.991L40.2215 4.753L37.8205 12.502C37.7598 12.6933 37.7411 12.8543 37.7645 12.985C37.7878 13.1157 37.8508 13.223 37.9535 13.307C38.0561 13.391 38.1961 13.4657 38.3735 13.531L38.6745 13.601C38.7398 13.6243 38.7888 13.6523 38.8215 13.685C38.8541 13.713 38.8705 13.7527 38.8705 13.804ZM53.7471 9.786L53.4951 5.523C53.4811 5.30367 53.4228 5.12867 53.3201 4.998C53.2221 4.86733 53.0611 4.774 52.8371 4.718L52.4311 4.627C52.3378 4.60367 52.2725 4.57567 52.2351 4.543C52.2025 4.50567 52.1861 4.45667 52.1861 4.396C52.1861 4.34 52.2071 4.29333 52.2491 4.256C52.2958 4.21867 52.3588 4.2 52.4381 4.2H54.9931C55.0771 4.2 55.1401 4.21867 55.1821 4.256C55.2241 4.29333 55.2451 4.34 55.2451 4.396C55.2451 4.45667 55.2241 4.50567 55.1821 4.543C55.1448 4.57567 55.0818 4.60367 54.9931 4.627L54.6291 4.718C54.4005 4.77867 54.2348 4.88133 54.1321 5.026C54.0295 5.166 53.9851 5.33867 53.9991 5.544L54.2581 9.751C54.2768 9.99833 54.2931 10.241 54.3071 10.479C54.3211 10.7123 54.3281 10.955 54.3281 11.207C54.3375 11.7763 54.2185 12.2873 53.9711 12.74C53.7285 13.1927 53.3481 13.552 52.8301 13.818C52.3121 14.0793 51.6448 14.21 50.8281 14.21C49.9508 14.21 49.2205 14.0887 48.6371 13.846C48.0585 13.5987 47.6245 13.2557 47.3351 12.817C47.0505 12.3737 46.9105 11.8627 46.9151 11.284C46.9151 11.1627 46.9198 11.0087 46.9291 10.822C46.9385 10.6307 46.9501 10.4253 46.9641 10.206C46.9781 9.98667 46.9921 9.76967 47.0061 9.555L47.2721 5.033C47.2815 4.935 47.2558 4.86267 47.1951 4.816C47.1391 4.76467 47.0435 4.725 46.9081 4.697L46.4601 4.627C46.2921 4.58967 46.2081 4.51267 46.2081 4.396C46.2081 4.34 46.2291 4.29333 46.2711 4.256C46.3178 4.21867 46.3831 4.2 46.4671 4.2H50.1491C50.2285 4.2 50.2891 4.21867 50.3311 4.256C50.3778 4.29333 50.4011 4.34 50.4011 4.396C50.4011 4.45667 50.3825 4.50567 50.3451 4.543C50.3078 4.57567 50.2425 4.60133 50.1491 4.62L49.6871 4.697C49.5705 4.72033 49.4841 4.75767 49.4281 4.809C49.3768 4.85567 49.3465 4.93033 49.3371 5.033L49.0781 9.527C49.0548 9.86767 49.0408 10.178 49.0361 10.458C49.0315 10.738 49.0268 10.9807 49.0221 11.186C49.0175 12.0447 49.2158 12.677 49.6171 13.083C50.0185 13.4843 50.5691 13.685 51.2691 13.685C51.7918 13.685 52.2421 13.587 52.6201 13.391C53.0028 13.1903 53.2968 12.908 53.5021 12.544C53.7121 12.1753 53.8148 11.739 53.8101 11.235C53.8055 10.9177 53.7961 10.647 53.7821 10.423C53.7728 10.1943 53.7611 9.982 53.7471 9.786ZM64.7082 7.595C64.7082 8.05233 64.6056 8.46767 64.4002 8.841C64.1996 9.20967 63.9126 9.51767 63.5392 9.765C63.1659 10.0077 62.7202 10.1757 62.2022 10.269C62.0576 10.2923 61.9176 10.318 61.7822 10.346C61.6516 10.3693 61.5186 10.3903 61.3832 10.409C61.2479 10.4277 61.1009 10.437 60.9422 10.437C60.6156 10.437 60.3169 10.416 60.0462 10.374C59.7802 10.3273 59.5399 10.2643 59.3252 10.185C59.1152 10.101 58.9262 9.99833 58.7582 9.877L58.8072 9.485C58.9519 9.59233 59.1129 9.68333 59.2902 9.758C59.4722 9.828 59.6636 9.87933 59.8642 9.912C60.0696 9.94467 60.2842 9.961 60.5082 9.961C61.1522 9.961 61.6609 9.76967 62.0342 9.387C62.4076 8.99967 62.5942 8.421 62.5942 7.651C62.5942 7.063 62.4776 6.54033 62.2442 6.083C62.0156 5.62567 61.6959 5.26867 61.2852 5.012C60.8746 4.75067 60.4009 4.62 59.8642 4.62H59.2482V13.146C59.2482 13.244 59.2716 13.321 59.3182 13.377C59.3649 13.4283 59.4396 13.468 59.5422 13.496L60.0602 13.587C60.1349 13.6103 60.1862 13.6383 60.2142 13.671C60.2422 13.7037 60.2562 13.748 60.2562 13.804C60.2562 13.9347 60.1699 14 59.9972 14H56.4482C56.3596 14 56.2942 13.9813 56.2522 13.944C56.2102 13.9067 56.1892 13.86 56.1892 13.804C56.1892 13.6967 56.2546 13.6243 56.3852 13.587L56.8612 13.496C56.9686 13.468 57.0479 13.4283 57.0992 13.377C57.1506 13.321 57.1762 13.244 57.1762 13.146V5.012C57.1762 4.928 57.1482 4.86267 57.0922 4.816C57.0409 4.76467 56.9639 4.72733 56.8612 4.704L56.3852 4.613C56.2546 4.57567 56.1892 4.50333 56.1892 4.396C56.1892 4.33533 56.2102 4.28867 56.2522 4.256C56.2942 4.21867 56.3596 4.2 56.4482 4.2H59.8992C60.9212 4.2 61.7892 4.34233 62.5032 4.627C63.2219 4.91167 63.7679 5.30833 64.1412 5.817C64.5192 6.32567 64.7082 6.91833 64.7082 7.595ZM60.7322 10.22L62.7202 9.996L64.6312 13.104C64.7199 13.2533 64.8132 13.3607 64.9112 13.426C65.0139 13.4913 65.1376 13.5427 65.2822 13.58C65.3756 13.608 65.4386 13.6383 65.4712 13.671C65.5086 13.7037 65.5272 13.748 65.5272 13.804C65.5272 13.86 65.5039 13.9067 65.4572 13.944C65.4152 13.9813 65.3499 14 65.2612 14H62.1672C61.9992 14 61.9152 13.9347 61.9152 13.804C61.9152 13.762 61.9269 13.7293 61.9502 13.706C61.9736 13.6827 62.0109 13.6593 62.0622 13.636L62.3142 13.58C62.4169 13.538 62.4776 13.4843 62.4962 13.419C62.5196 13.3537 62.4939 13.2557 62.4192 13.125L60.7322 10.22ZM67.7514 10.108H71.6294L71.6574 10.57H67.7094L67.7514 10.108ZM68.3744 13.804C68.3744 13.86 68.3534 13.9067 68.3114 13.944C68.2694 13.9813 68.204 14 68.1154 14H65.9034C65.8147 14 65.7494 13.9813 65.7074 13.944C65.6654 13.9067 65.6444 13.86 65.6444 13.804C65.6444 13.7573 65.6584 13.72 65.6864 13.692C65.7144 13.6593 65.7587 13.629 65.8194 13.601L66.0644 13.51C66.209 13.4493 66.335 13.3513 66.4424 13.216C66.5544 13.0807 66.6594 12.859 66.7574 12.551L69.0044 5.32C69.065 5.124 69.0744 4.977 69.0324 4.879C68.995 4.77633 68.8994 4.697 68.7454 4.641C68.652 4.599 68.5844 4.56167 68.5424 4.529C68.5004 4.49167 68.4794 4.44733 68.4794 4.396C68.4794 4.33067 68.5004 4.28167 68.5424 4.249C68.589 4.21633 68.6567 4.2 68.7454 4.2H71.8534C71.942 4.2 72.0074 4.21633 72.0494 4.249C72.096 4.28167 72.1194 4.33067 72.1194 4.396C72.1194 4.44733 72.0984 4.49167 72.0564 4.529C72.019 4.56633 71.956 4.60133 71.8674 4.634C71.746 4.662 71.6737 4.70633 71.6504 4.767C71.627 4.823 71.6387 4.921 71.6854 5.061L74.2614 12.999C74.3174 13.1717 74.385 13.3023 74.4644 13.391C74.5437 13.475 74.6511 13.5333 74.7864 13.566C74.875 13.5987 74.9334 13.6337 74.9614 13.671C74.994 13.7037 75.0104 13.748 75.0104 13.804C75.0104 13.86 74.9871 13.9067 74.9404 13.944C74.8984 13.9813 74.833 14 74.7444 14H71.6574C71.5687 14 71.501 13.9813 71.4544 13.944C71.4124 13.9067 71.3914 13.86 71.3914 13.804C71.3914 13.7527 71.4077 13.713 71.4404 13.685C71.473 13.6523 71.5244 13.6243 71.5944 13.601L71.9654 13.531C72.082 13.4937 72.145 13.44 72.1544 13.37C72.1684 13.2953 72.1497 13.181 72.0984 13.027L69.5224 4.991L69.7254 4.753L67.3244 12.502C67.2637 12.6933 67.245 12.8543 67.2684 12.985C67.2917 13.1157 67.3547 13.223 67.4574 13.307C67.56 13.391 67.7 13.4657 67.8774 13.531L68.1784 13.601C68.2437 13.6243 68.2927 13.6523 68.3254 13.685C68.358 13.713 68.3744 13.7527 68.3744 13.804ZM78.616 13.804C78.616 13.86 78.595 13.9067 78.553 13.944C78.511 13.9813 78.4457 14 78.357 14H75.865C75.7764 14 75.7087 13.9813 75.662 13.944C75.62 13.9067 75.599 13.86 75.599 13.804C75.599 13.706 75.6667 13.6313 75.802 13.58L76.173 13.475C76.383 13.4003 76.5417 13.3047 76.649 13.188C76.7564 13.0667 76.81 12.887 76.81 12.649V6.097C76.81 5.985 76.7984 5.89633 76.775 5.831C76.7517 5.76567 76.691 5.67233 76.593 5.551L75.977 4.662C75.9304 4.58733 75.893 4.529 75.865 4.487C75.8417 4.445 75.83 4.40533 75.83 4.368C75.83 4.312 75.8487 4.27 75.886 4.242C75.928 4.214 75.984 4.2 76.054 4.2H77.895C77.9837 4.2 78.056 4.21867 78.112 4.256C78.1727 4.29333 78.238 4.361 78.308 4.459L83.544 12.18L83.32 12.719V5.551C83.32 5.313 83.2687 5.13567 83.166 5.019C83.0634 4.89767 82.9024 4.79967 82.683 4.725L82.214 4.62C82.0787 4.564 82.011 4.48933 82.011 4.396C82.011 4.33533 82.032 4.28867 82.074 4.256C82.1207 4.21867 82.186 4.2 82.27 4.2H84.762C84.8507 4.2 84.916 4.21867 84.958 4.256C85.0047 4.28867 85.028 4.33533 85.028 4.396C85.028 4.494 84.9604 4.56867 84.825 4.62L84.454 4.725C84.244 4.795 84.0854 4.89067 83.978 5.012C83.8707 5.12867 83.817 5.30833 83.817 5.551V12.285C83.817 12.3923 83.8287 12.4857 83.852 12.565C83.8754 12.6397 83.9104 12.712 83.957 12.782L84.419 13.454C84.489 13.552 84.5334 13.6267 84.552 13.678C84.5707 13.7293 84.58 13.7737 84.58 13.811C84.58 13.867 84.559 13.9137 84.517 13.951C84.4797 13.9837 84.4214 14 84.342 14H82.41C82.2607 14 82.186 13.9347 82.186 13.804C82.186 13.7527 82.1744 13.7013 82.151 13.65C82.1324 13.594 82.081 13.51 81.997 13.398L76.81 5.782L77.307 5.53V12.649C77.307 12.8823 77.3584 13.0597 77.461 13.181C77.5684 13.3023 77.7294 13.4003 77.944 13.475L78.413 13.58C78.5484 13.6313 78.616 13.706 78.616 13.804ZM87.2613 4.2H92.7283C92.8683 4.2 92.9873 4.18133 93.0853 4.144C93.1833 4.10667 93.2696 4.06933 93.3443 4.032C93.4236 3.99467 93.4959 3.976 93.5613 3.976C93.6499 3.976 93.7176 3.99933 93.7643 4.046C93.8156 4.09267 93.8553 4.179 93.8833 4.305L94.3383 6.762C94.3616 6.85067 94.3593 6.923 94.3313 6.979C94.3033 7.03033 94.2543 7.063 94.1843 7.077C94.1189 7.091 94.0606 7.084 94.0093 7.056C93.9579 7.028 93.9159 6.97667 93.8833 6.902C93.6126 6.272 93.3723 5.79833 93.1623 5.481C92.9523 5.159 92.7469 4.942 92.5463 4.83C92.3503 4.718 92.1333 4.662 91.8953 4.662H91.0483V13.188C91.0483 13.272 91.0739 13.3397 91.1253 13.391C91.1813 13.4377 91.2606 13.4727 91.3633 13.496L91.8323 13.587C91.9676 13.6243 92.0353 13.6967 92.0353 13.804C92.0353 13.9347 91.9466 14 91.7693 14H88.2483C88.1596 14 88.0919 13.9813 88.0453 13.944C88.0033 13.9067 87.9823 13.86 87.9823 13.804C87.9823 13.6967 88.0499 13.6243 88.1853 13.587L88.6613 13.496C88.7639 13.4727 88.8409 13.4377 88.8923 13.391C88.9436 13.3397 88.9693 13.272 88.9693 13.188V4.662H88.1223C87.8936 4.662 87.6789 4.72267 87.4783 4.844C87.2823 4.96067 87.0769 5.18 86.8623 5.502C86.6523 5.824 86.4119 6.29067 86.1413 6.902C86.1039 6.97667 86.0596 7.028 86.0083 7.056C85.9569 7.084 85.8986 7.091 85.8333 7.077C85.7679 7.063 85.7213 7.03033 85.6933 6.979C85.6653 6.923 85.6606 6.85067 85.6793 6.762L86.1343 4.305C86.1623 4.179 86.1996 4.09267 86.2463 4.046C86.2976 3.99933 86.3676 3.976 86.4563 3.976C86.5216 3.976 86.5893 3.99467 86.6593 4.032C86.7339 4.06933 86.8179 4.10667 86.9113 4.144C87.0093 4.18133 87.1259 4.2 87.2613 4.2Z" fill="#349705"/>
<line x1="99" y1="10" x2="123" y2="10" stroke="#349705" stroke-width="2"/>
</svg>
