<svg width="142" height="41" viewBox="0 0 142 41" fill="none" xmlns="http://www.w3.org/2000/svg">
<rect x="1" y="1.5" width="140" height="38" stroke="#349705" stroke-width="2"/>
<path d="M19.4716 17.5625C19.4186 17.0663 19.1951 16.6799 18.8011 16.4034C18.411 16.1269 17.9034 15.9886 17.2784 15.9886C16.839 15.9886 16.4621 16.0549 16.1477 16.1875C15.8333 16.3201 15.5928 16.5 15.4261 16.7273C15.2595 16.9545 15.1742 17.214 15.1705 17.5057C15.1705 17.7481 15.2254 17.9583 15.3352 18.1364C15.4489 18.3144 15.6023 18.4659 15.7955 18.5909C15.9886 18.7121 16.2027 18.8144 16.4375 18.8977C16.6723 18.9811 16.9091 19.0511 17.1477 19.108L18.2386 19.3807C18.678 19.483 19.1004 19.6212 19.5057 19.7955C19.9148 19.9697 20.2803 20.1894 20.6023 20.4545C20.928 20.7197 21.1856 21.0398 21.375 21.4148C21.5644 21.7898 21.6591 22.2292 21.6591 22.733C21.6591 23.4148 21.4848 24.0152 21.1364 24.5341C20.7879 25.0492 20.2841 25.4527 19.625 25.7443C18.9697 26.0322 18.1761 26.1761 17.2443 26.1761C16.339 26.1761 15.553 26.036 14.8864 25.7557C14.2235 25.4754 13.7045 25.0663 13.3295 24.5284C12.9583 23.9905 12.7576 23.3352 12.7273 22.5625H14.8011C14.8314 22.9678 14.9564 23.3049 15.1761 23.5739C15.3958 23.8428 15.6818 24.0436 16.0341 24.1761C16.3902 24.3087 16.7879 24.375 17.2273 24.375C17.6856 24.375 18.0871 24.3068 18.4318 24.1705C18.7803 24.0303 19.053 23.8371 19.25 23.5909C19.447 23.3409 19.5473 23.0492 19.5511 22.7159C19.5473 22.4129 19.4583 22.1629 19.2841 21.9659C19.1098 21.7652 18.8655 21.5985 18.5511 21.4659C18.2405 21.3295 17.8769 21.2083 17.4602 21.1023L16.1364 20.7614C15.178 20.5152 14.4205 20.142 13.8636 19.642C13.3106 19.1383 13.0341 18.4697 13.0341 17.6364C13.0341 16.9508 13.2197 16.3504 13.5909 15.8352C13.9659 15.3201 14.4754 14.9205 15.1193 14.6364C15.7633 14.3485 16.4924 14.2045 17.3068 14.2045C18.1326 14.2045 18.8561 14.3485 19.4773 14.6364C20.1023 14.9205 20.5928 15.3163 20.9489 15.8239C21.3049 16.3277 21.4886 16.9072 21.5 17.5625H19.4716ZM27.3111 26.1705C26.4361 26.1705 25.6804 25.9886 25.044 25.625C24.4115 25.2576 23.9247 24.7386 23.5838 24.0682C23.2429 23.3939 23.0724 22.6004 23.0724 21.6875C23.0724 20.7898 23.2429 20.0019 23.5838 19.3239C23.9285 18.642 24.4096 18.1117 25.027 17.733C25.6444 17.3504 26.3698 17.1591 27.2031 17.1591C27.741 17.1591 28.2486 17.2462 28.7259 17.4205C29.2069 17.5909 29.6312 17.8561 29.9986 18.2159C30.3698 18.5758 30.6615 19.0341 30.8736 19.5909C31.0857 20.1439 31.1918 20.803 31.1918 21.5682V22.1989H24.0384V20.8125H29.2202C29.2164 20.4186 29.1312 20.0682 28.9645 19.7614C28.7978 19.4508 28.5649 19.2064 28.2656 19.0284C27.9702 18.8504 27.6255 18.7614 27.2315 18.7614C26.8111 18.7614 26.4418 18.8636 26.1236 19.0682C25.8054 19.2689 25.5573 19.5341 25.3793 19.8636C25.205 20.1894 25.116 20.5473 25.1122 20.9375V22.1477C25.1122 22.6553 25.205 23.0909 25.3906 23.4545C25.5762 23.8144 25.8357 24.0909 26.169 24.2841C26.5024 24.4735 26.8925 24.5682 27.3395 24.5682C27.6387 24.5682 27.9096 24.5265 28.152 24.4432C28.3944 24.3561 28.6046 24.2292 28.7827 24.0625C28.9607 23.8958 29.0952 23.6894 29.1861 23.4432L31.1065 23.6591C30.9853 24.1667 30.7543 24.6098 30.4134 24.9886C30.0762 25.3636 29.6444 25.6553 29.1179 25.8636C28.5914 26.0682 27.9891 26.1705 27.3111 26.1705ZM35.4432 26.1761C34.8902 26.1761 34.392 26.0777 33.9489 25.8807C33.5095 25.6799 33.161 25.3845 32.9034 24.9943C32.6496 24.6042 32.5227 24.1231 32.5227 23.5511C32.5227 23.0587 32.6136 22.6515 32.7955 22.3295C32.9773 22.0076 33.2254 21.75 33.5398 21.5568C33.8542 21.3636 34.2083 21.2178 34.6023 21.1193C35 21.017 35.411 20.9432 35.8352 20.8977C36.3466 20.8447 36.7614 20.7973 37.0795 20.7557C37.3977 20.7102 37.6288 20.642 37.7727 20.5511C37.9205 20.4564 37.9943 20.3106 37.9943 20.1136V20.0795C37.9943 19.6515 37.8674 19.3201 37.6136 19.0852C37.3598 18.8504 36.9943 18.733 36.517 18.733C36.0133 18.733 35.6136 18.8428 35.3182 19.0625C35.0265 19.2822 34.8295 19.5417 34.7273 19.8409L32.8068 19.5682C32.9583 19.0379 33.2083 18.5947 33.5568 18.2386C33.9053 17.8788 34.3314 17.6098 34.8352 17.4318C35.339 17.25 35.8958 17.1591 36.5057 17.1591C36.9261 17.1591 37.3447 17.2083 37.7614 17.3068C38.178 17.4053 38.5587 17.5682 38.9034 17.7955C39.2481 18.0189 39.5246 18.3239 39.733 18.7102C39.9451 19.0966 40.0511 19.5795 40.0511 20.1591V26H38.0739V24.8011H38.0057C37.8807 25.0436 37.7045 25.2708 37.4773 25.483C37.2538 25.6913 36.9716 25.8598 36.6307 25.9886C36.2936 26.1136 35.8977 26.1761 35.4432 26.1761ZM35.9773 24.6648C36.3902 24.6648 36.7481 24.5833 37.0511 24.4205C37.3542 24.2538 37.5871 24.0341 37.75 23.7614C37.9167 23.4886 38 23.1913 38 22.8693V21.8409C37.9356 21.8939 37.8258 21.9432 37.6705 21.9886C37.5189 22.0341 37.3485 22.0739 37.1591 22.108C36.9697 22.142 36.7822 22.1723 36.5966 22.1989C36.411 22.2254 36.25 22.2481 36.1136 22.267C35.8068 22.3087 35.5322 22.3769 35.2898 22.4716C35.0473 22.5663 34.8561 22.6989 34.7159 22.8693C34.5758 23.036 34.5057 23.2519 34.5057 23.517C34.5057 23.8958 34.6439 24.1818 34.9205 24.375C35.197 24.5682 35.5492 24.6648 35.9773 24.6648ZM49.017 19.5795L47.142 19.7841C47.089 19.5947 46.9962 19.4167 46.8636 19.25C46.7348 19.0833 46.5606 18.9489 46.3409 18.8466C46.1212 18.7443 45.8523 18.6932 45.5341 18.6932C45.1061 18.6932 44.7462 18.786 44.4545 18.9716C44.1667 19.1572 44.0246 19.3977 44.0284 19.6932C44.0246 19.947 44.1174 20.1534 44.3068 20.3125C44.5 20.4716 44.8182 20.6023 45.2614 20.7045L46.75 21.0227C47.5758 21.2008 48.1894 21.483 48.5909 21.8693C48.9962 22.2557 49.2008 22.7614 49.2045 23.3864C49.2008 23.9356 49.0398 24.4205 48.7216 24.8409C48.4072 25.2576 47.9697 25.5833 47.4091 25.8182C46.8485 26.053 46.2045 26.1705 45.4773 26.1705C44.4091 26.1705 43.5492 25.947 42.8977 25.5C42.2462 25.0492 41.858 24.4223 41.733 23.6193L43.7386 23.4261C43.8295 23.8201 44.0227 24.1174 44.3182 24.3182C44.6136 24.5189 44.9981 24.6193 45.4716 24.6193C45.9602 24.6193 46.3523 24.5189 46.6477 24.3182C46.947 24.1174 47.0966 23.8693 47.0966 23.5739C47.0966 23.3239 47 23.1174 46.8068 22.9545C46.6174 22.7917 46.322 22.6667 45.9205 22.5795L44.4318 22.267C43.5947 22.0928 42.9754 21.7992 42.5739 21.3864C42.1723 20.9697 41.9735 20.4432 41.9773 19.8068C41.9735 19.2689 42.1193 18.803 42.4148 18.4091C42.714 18.0114 43.1288 17.7045 43.6591 17.4886C44.1932 17.2689 44.8087 17.1591 45.5057 17.1591C46.5284 17.1591 47.3333 17.3769 47.9205 17.8125C48.5114 18.2481 48.8769 18.8371 49.017 19.5795ZM54.7074 26.1705C53.8551 26.1705 53.1165 25.983 52.4915 25.608C51.8665 25.233 51.3816 24.7083 51.0369 24.0341C50.696 23.3598 50.5256 22.572 50.5256 21.6705C50.5256 20.7689 50.696 19.9792 51.0369 19.3011C51.3816 18.6231 51.8665 18.0966 52.4915 17.7216C53.1165 17.3466 53.8551 17.1591 54.7074 17.1591C55.5597 17.1591 56.2983 17.3466 56.9233 17.7216C57.5483 18.0966 58.0313 18.6231 58.3722 19.3011C58.7169 19.9792 58.8892 20.7689 58.8892 21.6705C58.8892 22.572 58.7169 23.3598 58.3722 24.0341C58.0313 24.7083 57.5483 25.233 56.9233 25.608C56.2983 25.983 55.5597 26.1705 54.7074 26.1705ZM54.7188 24.5227C55.1809 24.5227 55.5672 24.3958 55.8778 24.142C56.1884 23.8845 56.4195 23.5398 56.571 23.108C56.7263 22.6761 56.804 22.1951 56.804 21.6648C56.804 21.1307 56.7263 20.6477 56.571 20.2159C56.4195 19.7803 56.1884 19.4337 55.8778 19.1761C55.5672 18.9186 55.1809 18.7898 54.7188 18.7898C54.2453 18.7898 53.8513 18.9186 53.5369 19.1761C53.2263 19.4337 52.9934 19.7803 52.8381 20.2159C52.6866 20.6477 52.6108 21.1307 52.6108 21.6648C52.6108 22.1951 52.6866 22.6761 52.8381 23.108C52.9934 23.5398 53.2263 23.8845 53.5369 24.142C53.8513 24.3958 54.2453 24.5227 54.7188 24.5227ZM62.6918 20.8864V26H60.6349V17.2727H62.6009V18.7557H62.7031C62.9039 18.267 63.224 17.8788 63.6634 17.5909C64.1065 17.303 64.6539 17.1591 65.3054 17.1591C65.9077 17.1591 66.4323 17.2879 66.8793 17.5455C67.33 17.803 67.6785 18.1761 67.9247 18.6648C68.1747 19.1534 68.2978 19.7462 68.294 20.4432V26H66.2372V20.7614C66.2372 20.178 66.0857 19.7216 65.7827 19.392C65.4834 19.0625 65.0687 18.8977 64.5384 18.8977C64.1785 18.8977 63.8584 18.9773 63.5781 19.1364C63.3016 19.2917 63.0838 19.517 62.9247 19.8125C62.7694 20.108 62.6918 20.4659 62.6918 20.8864ZM72.8963 26.1761C72.3433 26.1761 71.8452 26.0777 71.402 25.8807C70.9626 25.6799 70.6141 25.3845 70.3565 24.9943C70.1027 24.6042 69.9759 24.1231 69.9759 23.5511C69.9759 23.0587 70.0668 22.6515 70.2486 22.3295C70.4304 22.0076 70.6785 21.75 70.9929 21.5568C71.3073 21.3636 71.6615 21.2178 72.0554 21.1193C72.4531 21.017 72.8641 20.9432 73.2884 20.8977C73.7997 20.8447 74.2145 20.7973 74.5327 20.7557C74.8509 20.7102 75.0819 20.642 75.2259 20.5511C75.3736 20.4564 75.4474 20.3106 75.4474 20.1136V20.0795C75.4474 19.6515 75.3205 19.3201 75.0668 19.0852C74.813 18.8504 74.4474 18.733 73.9702 18.733C73.4664 18.733 73.0668 18.8428 72.7713 19.0625C72.4796 19.2822 72.2827 19.5417 72.1804 19.8409L70.2599 19.5682C70.4115 19.0379 70.6615 18.5947 71.0099 18.2386C71.3584 17.8788 71.7846 17.6098 72.2884 17.4318C72.7921 17.25 73.349 17.1591 73.9588 17.1591C74.3793 17.1591 74.7978 17.2083 75.2145 17.3068C75.6312 17.4053 76.0118 17.5682 76.3565 17.7955C76.7012 18.0189 76.9777 18.3239 77.1861 18.7102C77.3982 19.0966 77.5043 19.5795 77.5043 20.1591V26H75.527V24.8011H75.4588C75.3338 25.0436 75.1577 25.2708 74.9304 25.483C74.7069 25.6913 74.4247 25.8598 74.0838 25.9886C73.7467 26.1136 73.3509 26.1761 72.8963 26.1761ZM73.4304 24.6648C73.8433 24.6648 74.2012 24.5833 74.5043 24.4205C74.8073 24.2538 75.0402 24.0341 75.2031 23.7614C75.3698 23.4886 75.4531 23.1913 75.4531 22.8693V21.8409C75.3887 21.8939 75.2789 21.9432 75.1236 21.9886C74.9721 22.0341 74.8016 22.0739 74.6122 22.108C74.4228 22.142 74.2353 22.1723 74.0497 22.1989C73.8641 22.2254 73.7031 22.2481 73.5668 22.267C73.2599 22.3087 72.9853 22.3769 72.7429 22.4716C72.5005 22.5663 72.3092 22.6989 72.169 22.8693C72.0289 23.036 71.9588 23.2519 71.9588 23.517C71.9588 23.8958 72.0971 24.1818 72.3736 24.375C72.6501 24.5682 73.0024 24.6648 73.4304 24.6648ZM81.6293 14.3636V26H79.5724V14.3636H81.6293ZM87.7131 26V17.2727H89.679V18.7557H89.7812C89.9631 18.2557 90.2642 17.8655 90.6847 17.5852C91.1051 17.3011 91.607 17.1591 92.1903 17.1591C92.7812 17.1591 93.2794 17.303 93.6847 17.5909C94.0938 17.875 94.3816 18.2633 94.5483 18.7557H94.6392C94.8324 18.2708 95.1581 17.8845 95.6165 17.5966C96.0786 17.3049 96.6259 17.1591 97.2585 17.1591C98.0616 17.1591 98.7169 17.4129 99.2244 17.9205C99.732 18.428 99.9858 19.1686 99.9858 20.142V26H97.9233V20.4602C97.9233 19.9186 97.7794 19.5227 97.4915 19.2727C97.2036 19.0189 96.8513 18.892 96.4347 18.892C95.9384 18.892 95.5502 19.0473 95.2699 19.358C94.9934 19.6648 94.8551 20.0644 94.8551 20.5568V26H92.8381V20.375C92.8381 19.9242 92.7017 19.5644 92.429 19.2955C92.16 19.0265 91.8078 18.892 91.3722 18.892C91.0767 18.892 90.8078 18.9678 90.5653 19.1193C90.3229 19.267 90.1297 19.4773 89.9858 19.75C89.8419 20.0189 89.7699 20.3333 89.7699 20.6932V26H87.7131ZM105.936 26.1705C105.061 26.1705 104.305 25.9886 103.669 25.625C103.036 25.2576 102.55 24.7386 102.209 24.0682C101.868 23.3939 101.697 22.6004 101.697 21.6875C101.697 20.7898 101.868 20.0019 102.209 19.3239C102.554 18.642 103.035 18.1117 103.652 17.733C104.269 17.3504 104.995 17.1591 105.828 17.1591C106.366 17.1591 106.874 17.2462 107.351 17.4205C107.832 17.5909 108.256 17.8561 108.624 18.2159C108.995 18.5758 109.286 19.0341 109.499 19.5909C109.711 20.1439 109.817 20.803 109.817 21.5682V22.1989H102.663V20.8125H107.845C107.841 20.4186 107.756 20.0682 107.589 19.7614C107.423 19.4508 107.19 19.2064 106.891 19.0284C106.595 18.8504 106.25 18.7614 105.857 18.7614C105.436 18.7614 105.067 18.8636 104.749 19.0682C104.43 19.2689 104.182 19.5341 104.004 19.8636C103.83 20.1894 103.741 20.5473 103.737 20.9375V22.1477C103.737 22.6553 103.83 23.0909 104.016 23.4545C104.201 23.8144 104.461 24.0909 104.794 24.2841C105.127 24.4735 105.518 24.5682 105.964 24.5682C106.264 24.5682 106.535 24.5265 106.777 24.4432C107.019 24.3561 107.23 24.2292 107.408 24.0625C107.586 23.8958 107.72 23.6894 107.811 23.4432L109.732 23.6591C109.61 24.1667 109.379 24.6098 109.038 24.9886C108.701 25.3636 108.269 25.6553 107.743 25.8636C107.216 26.0682 106.614 26.1705 105.936 26.1705ZM113.614 20.8864V26H111.557V17.2727H113.523V18.7557H113.625C113.826 18.267 114.146 17.8788 114.585 17.5909C115.028 17.303 115.576 17.1591 116.227 17.1591C116.83 17.1591 117.354 17.2879 117.801 17.5455C118.252 17.803 118.6 18.1761 118.847 18.6648C119.097 19.1534 119.22 19.7462 119.216 20.4432V26H117.159V20.7614C117.159 20.178 117.008 19.7216 116.705 19.392C116.405 19.0625 115.991 18.8977 115.46 18.8977C115.1 18.8977 114.78 18.9773 114.5 19.1364C114.223 19.2917 114.006 19.517 113.847 19.8125C113.691 20.108 113.614 20.4659 113.614 20.8864ZM126.869 22.3295V17.2727H128.926V26H126.932V24.4489H126.841C126.644 24.9375 126.32 25.3371 125.869 25.6477C125.422 25.9583 124.871 26.1136 124.216 26.1136C123.644 26.1136 123.138 25.9867 122.699 25.733C122.263 25.4754 121.922 25.1023 121.676 24.6136C121.43 24.1212 121.307 23.5265 121.307 22.8295V17.2727H123.364V22.5114C123.364 23.0644 123.515 23.5038 123.818 23.8295C124.121 24.1553 124.519 24.3182 125.011 24.3182C125.314 24.3182 125.608 24.2443 125.892 24.0966C126.176 23.9489 126.409 23.7292 126.591 23.4375C126.777 23.142 126.869 22.7727 126.869 22.3295Z" fill="#349705"/>
</svg>
