<svg width="126" height="40" viewBox="0 0 126 40" fill="none" xmlns="http://www.w3.org/2000/svg">
<rect width="126" height="40" fill="#349705"/>
<path d="M22.7045 13.8636L25.733 23.0227H25.8523L28.875 13.8636H31.1932L27.0909 25.5H24.4886L20.392 13.8636H22.7045ZM32.6349 25.5V16.7727H34.6918V25.5H32.6349ZM33.669 15.5341C33.3433 15.5341 33.063 15.4261 32.8281 15.2102C32.5933 14.9905 32.4759 14.7273 32.4759 14.4205C32.4759 14.1098 32.5933 13.8466 32.8281 13.6307C33.063 13.411 33.3433 13.3011 33.669 13.3011C33.9986 13.3011 34.2789 13.411 34.5099 13.6307C34.7448 13.8466 34.8622 14.1098 34.8622 14.4205C34.8622 14.7273 34.7448 14.9905 34.5099 15.2102C34.2789 15.4261 33.9986 15.5341 33.669 15.5341ZM40.6705 25.6705C39.7955 25.6705 39.0398 25.4886 38.4034 25.125C37.7708 24.7576 37.2841 24.2386 36.9432 23.5682C36.6023 22.8939 36.4318 22.1004 36.4318 21.1875C36.4318 20.2898 36.6023 19.5019 36.9432 18.8239C37.2879 18.142 37.7689 17.6117 38.3864 17.233C39.0038 16.8504 39.7292 16.6591 40.5625 16.6591C41.1004 16.6591 41.608 16.7462 42.0852 16.9205C42.5663 17.0909 42.9905 17.3561 43.358 17.7159C43.7292 18.0758 44.0208 18.5341 44.233 19.0909C44.4451 19.6439 44.5511 20.303 44.5511 21.0682V21.6989H37.3977V20.3125H42.5795C42.5758 19.9186 42.4905 19.5682 42.3239 19.2614C42.1572 18.9508 41.9242 18.7064 41.625 18.5284C41.3295 18.3504 40.9848 18.2614 40.5909 18.2614C40.1705 18.2614 39.8011 18.3636 39.483 18.5682C39.1648 18.7689 38.9167 19.0341 38.7386 19.3636C38.5644 19.6894 38.4754 20.0473 38.4716 20.4375V21.6477C38.4716 22.1553 38.5644 22.5909 38.75 22.9545C38.9356 23.3144 39.1951 23.5909 39.5284 23.7841C39.8617 23.9735 40.2519 24.0682 40.6989 24.0682C40.9981 24.0682 41.2689 24.0265 41.5114 23.9432C41.7538 23.8561 41.964 23.7292 42.142 23.5625C42.3201 23.3958 42.4545 23.1894 42.5455 22.9432L44.4659 23.1591C44.3447 23.6667 44.1136 24.1098 43.7727 24.4886C43.4356 24.8636 43.0038 25.1553 42.4773 25.3636C41.9508 25.5682 41.3485 25.6705 40.6705 25.6705ZM48.0455 25.5L45.5795 16.7727H47.6761L49.2102 22.9091H49.2898L50.858 16.7727H52.9318L54.5 22.875H54.5852L56.0966 16.7727H58.1989L55.7273 25.5H53.5852L51.9489 19.6023H51.8295L50.1932 25.5H48.0455ZM63.6037 25.5V16.7727H65.5696V18.2557H65.6719C65.8537 17.7557 66.1548 17.3655 66.5753 17.0852C66.9957 16.8011 67.4976 16.6591 68.081 16.6591C68.6719 16.6591 69.17 16.803 69.5753 17.0909C69.9844 17.375 70.2723 17.7633 70.4389 18.2557H70.5298C70.723 17.7708 71.0488 17.3845 71.5071 17.0966C71.9692 16.8049 72.5166 16.6591 73.1491 16.6591C73.9522 16.6591 74.6075 16.9129 75.1151 17.4205C75.6226 17.928 75.8764 18.6686 75.8764 19.642V25.5H73.8139V19.9602C73.8139 19.4186 73.67 19.0227 73.3821 18.7727C73.0942 18.5189 72.742 18.392 72.3253 18.392C71.8291 18.392 71.4408 18.5473 71.1605 18.858C70.884 19.1648 70.7457 19.5644 70.7457 20.0568V25.5H68.7287V19.875C68.7287 19.4242 68.5923 19.0644 68.3196 18.7955C68.0507 18.5265 67.6984 18.392 67.2628 18.392C66.9673 18.392 66.6984 18.4678 66.456 18.6193C66.2135 18.767 66.0204 18.9773 65.8764 19.25C65.7325 19.5189 65.6605 19.8333 65.6605 20.1932V25.5H63.6037ZM81.8267 25.6705C80.9517 25.6705 80.196 25.4886 79.5597 25.125C78.9271 24.7576 78.4403 24.2386 78.0994 23.5682C77.7585 22.8939 77.5881 22.1004 77.5881 21.1875C77.5881 20.2898 77.7585 19.5019 78.0994 18.8239C78.4441 18.142 78.9252 17.6117 79.5426 17.233C80.16 16.8504 80.8854 16.6591 81.7188 16.6591C82.2566 16.6591 82.7642 16.7462 83.2415 16.9205C83.7225 17.0909 84.1468 17.3561 84.5142 17.7159C84.8854 18.0758 85.1771 18.5341 85.3892 19.0909C85.6013 19.6439 85.7074 20.303 85.7074 21.0682V21.6989H78.554V20.3125H83.7358C83.732 19.9186 83.6468 19.5682 83.4801 19.2614C83.3134 18.9508 83.0805 18.7064 82.7812 18.5284C82.4858 18.3504 82.1411 18.2614 81.7472 18.2614C81.3267 18.2614 80.9574 18.3636 80.6392 18.5682C80.321 18.7689 80.0729 19.0341 79.8949 19.3636C79.7206 19.6894 79.6316 20.0473 79.6278 20.4375V21.6477C79.6278 22.1553 79.7206 22.5909 79.9062 22.9545C80.0919 23.3144 80.3513 23.5909 80.6847 23.7841C81.018 23.9735 81.4081 24.0682 81.8551 24.0682C82.1544 24.0682 82.4252 24.0265 82.6676 23.9432C82.91 23.8561 83.1203 23.7292 83.2983 23.5625C83.4763 23.3958 83.6108 23.1894 83.7017 22.9432L85.6222 23.1591C85.5009 23.6667 85.2699 24.1098 84.929 24.4886C84.5919 24.8636 84.16 25.1553 83.6335 25.3636C83.107 25.5682 82.5047 25.6705 81.8267 25.6705ZM89.5043 20.3864V25.5H87.4474V16.7727H89.4134V18.2557H89.5156C89.7164 17.767 90.0365 17.3788 90.4759 17.0909C90.919 16.803 91.4664 16.6591 92.1179 16.6591C92.7202 16.6591 93.2448 16.7879 93.6918 17.0455C94.1425 17.303 94.491 17.6761 94.7372 18.1648C94.9872 18.6534 95.1103 19.2462 95.1065 19.9432V25.5H93.0497V20.2614C93.0497 19.678 92.8982 19.2216 92.5952 18.892C92.2959 18.5625 91.8812 18.3977 91.3509 18.3977C90.991 18.3977 90.6709 18.4773 90.3906 18.6364C90.1141 18.7917 89.8963 19.017 89.7372 19.3125C89.5819 19.608 89.5043 19.9659 89.5043 20.3864ZM102.76 21.8295V16.7727H104.817V25.5H102.822V23.9489H102.732C102.535 24.4375 102.211 24.8371 101.76 25.1477C101.313 25.4583 100.762 25.6136 100.107 25.6136C99.5346 25.6136 99.0289 25.4867 98.5895 25.233C98.1539 24.9754 97.813 24.6023 97.5668 24.1136C97.3205 23.6212 97.1974 23.0265 97.1974 22.3295V16.7727H99.2543V22.0114C99.2543 22.5644 99.4058 23.0038 99.7088 23.3295C100.012 23.6553 100.41 23.8182 100.902 23.8182C101.205 23.8182 101.499 23.7443 101.783 23.5966C102.067 23.4489 102.3 23.2292 102.482 22.9375C102.667 22.642 102.76 22.2727 102.76 21.8295Z" fill="white"/>
</svg>
